<svg xmlns="http://www.w3.org/2000/svg" viewBox="0 0 512 512">
	<path fill="currentColor" d="M211 242h30v30h-30zM271 242h30v30h-30z"/>
	<path fill="currentColor" d="M360.353 274.224l-11.039-45.758C338.899 185.21 300.527 155 256 155c-44.527 0-82.899 30.21-93.313 73.461l-11.04 45.771a59.169 59.169 0 00-1.646 13.829c0 22.146 12.086 41.831 31 51.934V392h30v-46.939h30V392h30v-46.939h30V392h30v-52.006c18.914-10.103 31-29.788 31-51.934a59.22 59.22 0 00-1.648-13.836zm-46.882 40.837H198.529c-11.158-4.277-18.529-14.883-18.529-27 0-2.273.274-4.564.813-6.802l11.039-45.77C199.01 205.762 225.388 185 256 185s56.99 20.762 64.149 50.495l11.036 45.756c.54 2.245.814 4.536.814 6.81.001 12.117-7.37 22.722-18.528 27z"/>
	<path fill="currentColor" d="M1 0v30h30v407c0 41.355 33.645 75 75 75h300c41.355 0 75-33.645 75-75V30h30V0H1zm450 437c0 24.813-20.187 45-45 45H106c-24.813 0-45-20.187-45-45V30h390v407z"/>
	<path fill="currentColor" d="M406 75c-17.762 0-27.362 7.68-34.372 13.286-5.588 4.47-8.393 6.714-15.633 6.714-7.239 0-10.044-2.243-15.632-6.713C333.354 82.68 323.753 75 305.99 75c-17.761 0-27.36 7.68-34.369 13.287-5.586 4.47-8.391 6.713-15.628 6.713-7.238 0-10.043-2.243-15.63-6.713C233.354 82.68 223.755 75 205.993 75c-17.761 0-27.36 7.68-34.369 13.287-5.586 4.47-8.391 6.713-15.628 6.713s-10.041-2.243-15.627-6.713C133.36 82.68 123.761 75 106 75H91v377h330V75h-15zm-15 347H121V111.211l.627.502C128.636 117.32 138.235 125 155.996 125c17.762 0 27.36-7.68 34.37-13.287 5.586-4.47 8.39-6.713 15.627-6.713 7.238 0 10.043 2.243 15.63 6.713 7.009 5.607 16.608 13.287 34.37 13.287 17.762 0 27.36-7.68 34.37-13.287 5.586-4.47 8.39-6.713 15.627-6.713 7.24 0 10.045 2.244 15.633 6.714 7.01 5.606 16.61 13.286 34.372 13.286 17.763 0 27.363-7.68 34.373-13.287l.632-.505V422z"/>
</svg>