<svg id="Layer_1" data-name="Layer 1"
  xmlns="http://www.w3.org/2000/svg" viewBox="0 0 1919.38 908.4">
  <path class="cls-1" d="M1919.38 851.43q-.06-148.71-.14-297.42-.1-140.72-.25-281.43v-4.85c-1.69-.86-2.35.47-3.09 1.17-14.67 13.93-32.55 22.45-51.11 29.51-13.62 5.17-23.12 15.39-33.32 24.87-2.07 1.92-3.9 4.1-5.78 6.22-2.74 3.07-5 6.17-10.31 5.08-2.62-.54-5.86 1.87-8.81 3s-6.45 3.8-9.24 3.3c-7-1.25-12.39 1.95-18.12 4.56a10.34 10.34 0 00-2.91 1.84c-19.36 18.78-40.88 35.08-60.85 53.16-.74.67-1.79 1.16-2.22 2-6.76 13-19 20.82-29 30.77-3.18 3.17-5.47 6.45-5.33 11.27.2 7.24-2.18 14.14-3.83 21.07-1.11 4.63-5.09 7.75-8.27 11.07-1.49 1.55-4.18.66-6.17-.14-4.11-1.66-7.48-.3-10.5 2.35a70.73 70.73 0 01-15.85 10.3c-8 3.91-10.63 11.83-13.38 19.48-.37 1 0 2.37-1 3.16-4 3-6.28 7.34-8.46 11.6-4.83 9.47-13.44 11.45-22.82 12.31a10.89 10.89 0 00-4.69 1.43 5.34 5.34 0 01-6.07.17 6 6 0 00-7.74.84c-2.47 2.25-5.59 2.77-8.82 2.89-8.17.31-16.34.9-24.47-.56a3.62 3.62 0 00-2.82.5c-3.53 3.76-7.39 5-12.78 4.33s-6.21 5.09-8.33 8.69c-.29 11.79-5.07 21.19-15 27.66a11.17 11.17 0 00-5.1 7.59c-1.35 6.52-3 13-4.35 19.5-.55 2.58-1.49 4.72-4.07 5.87-6.93 3.09-10.25 9.25-12.8 15.81a82.13 82.13 0 00-4.31 14.34c-1.68 8.87-6.22 15.94-12.42 22.19-3.28 3.31-5.93 7.54-9.53 10.15-10.84 7.88-11.75 19.8-14.26 31.2a77.34 77.34 0 01-4 14.06c0-7 .68-14-.15-20.89-1.44-12 2.12-21.13 11.74-28.6 5.06-3.92 9-9.31 13.36-14.11 3.1-3.43 3-8 4-12.16 3.63-14.92 7-30 21.63-38.77 2.39-1.44 2.9-4 3.33-6.45 1.38-7.87 2.78-15.73 3.89-23.64.46-3.32 1.4-4.89 5.07-3.81 4.76 1.41 8.62-.33 11.17-4.41 2.69-4.3 7.41-7.38 7.91-13 2-4.84-.24-5.92-4.74-6.28-9.6-.79-19.16-2.19-28.75-3.17-3.06-.31-4.94-1.17-4.84-4.68.2-6.13-3.39-12.21.2-18.44 1.07-1.86-.68-3.53-2.71-3.9a65.63 65.63 0 00-7.43-.78c-7.3-.52-10.72-4.55-11.81-11.83-2.94-19.59-4.07-39.36-6.35-59-.2-1.68 0-3.43-2.65-4.09-2.32-.57-1.48-3.35-1.77-5.21s-.75-3.71-3-3.93c-2.56-.25-2.88 1.32-2.87 3.49 0 1.2-.94 2.38-1.33 3.62-.56 1.78 1.29 4.71-1 5.33-3.13.83-6.6.59-9.91.4-1.42-.09-1.14-1.9-1.07-3 .61-8.35-3.48-14.35-9.19-19.86-4.43-4.26-8.06-9.34-12.5-13.58-5.07-4.83-8.06-10.37-8.29-17.37h-.97c1.51 7.92-1.57 14.49-5.82 20.88-3.4 5.12-6.28 10.59-9.43 15.88a10.2 10.2 0 00-1.74 5.08c0 1.79 1.43 4.54-1.1 5.24-2.72.77-6.15 2.06-8.53-.39-2.54-2.6-3.62-1-4.87.91-1.48 2.24-3.48 3.17-6.15 3.64-14.42 2.55-28.81 5.31-43.2 8-.1 21.34 1.49 42.6 2.84 63.87.16 2.63.08 5.29.12 7.94.31 2.27.62 4.55.94 6.82 0 15.47.62 30.91 2 46.32.31 3.47-1 4.74-4.49 4.85-6.4.19-12.58-.31-18.52-3a66.11 66.11 0 00-9.42-3.3 18.93 18.93 0 00-22.15 9.49c-.37.74-.68 1.74-1.31 2.08-9.22 5-17.53 11.19-29.32 10.7-14.35-.6-28.09-5.28-42.45-5a11.79 11.79 0 01-7.82-3c-5.43-4.64-11.12-1.77-16.31-.46-5.46 1.38-10.71 3.36-16.46 3.46-10.5.17-20.92 1.15-31.08 4-4 1.13-5.77.25-5.63-4.34.44-15.14-.8-30.26-1.16-45.39-.5-20.93-1.27-41.88-2-62.81-.3-8.13-.61-16.27-.76-24.42-1 .13-2 .23-3 .37-3.7.54-5.38-.62-5.08-4.78.28-3.76 1.38-8.1-3.11-10.61-.13-.08-.32-.28-.29-.38 1.65-7.78-4.5-14.45-3.14-22.18-.16-.17-.32-.34-.47-.52a8.4 8.4 0 00-1.59 8.3 15.53 15.53 0 01-.44 10.26c-1.33 3.52-4.36 4.11-6.66 1.18-6.73-8.54-7.14-18.07-3.93-28 .54-1.67-.27-2.51-.8-3.6-1.91-3.9-4.72-7.4-5.31-12.24a3.11 3.11 0 010-.32 3.38 3.38 0 01-.08.34c-1.14 5.36-4.46 9.36-8.23 14.34-4.75-15.45-12.78-29.13-14.71-46.39a128.59 128.59 0 01-5.34 23.81c-1.82.07-2-1.54-2.69-2.51-4.75-7.24-9.32-14.59-14.14-21.78-2.9-4.33-5.61-8.67-5.64-14.09 0-2.82-1.33-3.79-4-3.42a15.68 15.68 0 01-4 .07c-3.1-.37-4.77.61-4.42 4 .26 2.61-.89 3.54-3.54 3.16-5.11-.71-10.27-1.08-15.37-1.83-3.45-.51-4.46-1.84-3.82-6.09 1.23-8.26 2.28-16.86-.7-25.1-1.8-5-4-9.83-6.52-16.05-3.11 8.85-9.26 15.56-8.51 24.33a59.09 59.09 0 01-8.93 37c-2.33 3.81-3.41 8.35-9.56 7.17-2.45-.47-2.85 1.77-1.25 3.11s1 2.11.07 3.16c-6.82 7.42-11.17 16.51-16.77 24.76-.56.83-.88 2.08-1.64 2.46-10.11 5-8.65 16.31-13 24.43-3.51 6.59-1 11.85 5.86 15.15 3.79 1.83 5.34 4 5.34 8.32q.07 47.48.61 94.93c0 3.33-.69 4.78-4.23 4.76-8.32 0-16.64.21-25 .34 0 4-.08 8 0 12 0 2.45-.68 3.55-3.51 3.29-16-1.45-32.07-2.76-48.11-4-9.58-.76-19-1.26-28.55 1.73-7.31 2.28-15.47 3-22.06-3.23-1.8.26-3.65.88-5.24-.63a30.69 30.69 0 01-12-13.71c-3.11-7.1-8.68-10.05-15.35-9.08-7.78 1.12-12-3.46-16.82-7.6a75.86 75.86 0 00-7.46-5.82 13.47 13.47 0 00-11.08-2.22c-7 1.49-8 .44-8-6.94v-87.93c0-6.74 0-6.9-6.59-6.74-25.1.62-50.23.78-75.27 2.28-11.95.72-24-.47-35.86 1.58-1.51.26-3.55.69-4.57-1s.64-2.78 1.38-4c4.62-7.51 9.35-15 13.94-22.49a6.7 6.7 0 016.13-3.41q33.12-1.4 66.23-3c10-.5 19.88-1.29 29.83-1.94.16 0 .42.05.48 0 3.85-4.87 8.5-.74 12.74-1.15.46-24.79 1-49.58 1.33-74.38a4.47 4.47 0 013.08-4.49c4.84-2.15 6.57-5.83 6.4-11.16-.34-10.48-.07-21-.2-31.47 0-2.61.35-4.22 3.31-5 4-1.06 5.56-3.65 3.81-8-2.31-5.68-4.21-11.54-6.29-17.32-1.13 5.05 1.82 9.25 2.87 13.85.39 1.7 2.11 3.74.41 5.09s-3.38-.7-4.75-1.69c-16.26-11.76-35.17-17.35-54.11-22.31-9.34-2.45-19.41-2.4-29.18-2.86-11.76-.56-12.07-.31-11-11.63 1.69-18.68 3.84-37.31 5.69-56 1.82-18.33 3.42-36.69 5.26-55 2.16-21.64 4.51-43.26 6.72-64.89 1.42-13.87 2.73-27.75 4.09-41.63A4.91 4.91 0 00666.64 0c-12.72 34.24-27.1 67.81-40.79 102.53-8.66-11.65-8-25.13-11.44-37.9-1.92 3-2.1 6.54-4.83 9.18-1.71-6.37-1.73-12.71-3.89-18.87-2.1 3.55-2.46 7.55-5.18 11.1a55.7 55.7 0 01-3.71-16.94c-2.17.23-1.6 1.91-1.81 3-1.2 6.44-2.93 12.72-7.12 17.88-2 2.49-.19 4.73-.36 7.06-.69 9.29-.93 18.62-1.32 27.93-.13 3-.49 6.11 3.09 7.66 1 .45 1.24 1.44 1.26 2.51.11 4.63 1.3 8.53 6.4 10.09 1.72.52 1 2.27 1 3.48-.26 12.81-.61 25.63-.88 38.44a15.32 15.32 0 01-1.65 5.69q-16 37.89-32.13 75.76c-1.85 4.35-2.8 8.07 3.24 9.57 1.74.44 1.7 1.81 1.78 3.14.46 7.81.85 15.62 1.41 23.43.19 2.79-1.7 2.81-3.5 3.07-20.11 2.92-40.34 4.6-60.61 5.91-1 .07-2.37.52-2.51-.79-.4-3.76-2.07-8-.12-11.2a10.43 10.43 0 001.37-7.41l-12-.09c-2.81 0-5.61.26-7.88-2.12-1.71-1.8-3.69-.09-6.31.3 1.84-5.54 3.52-10.67 5.26-15.78.63-1.84 2.18-2.4 4-2.39 2.9 0 3.51-1.76 3.59-4.25.75-23.21 2.12-46.41 2-69.64-3-.35-2.05 2.15-2.15 3.41-1.53 18.79-4.72 37.34-8.38 55.79-1.53 7.72-3.49 15.46-8.76 21.78a2.15 2.15 0 00-.42 1.38c.37 6.43-1.87 12.42-2.79 18.6-.54 3.64.58 8 .89 12.12.29 3.7-.82 5.23-4.74 5.55-27.23 2.21-54.44 4.61-81.65 7-3.29.3-4.59-1.85-2.89-3.56 4.57-4.57 2.61-10.3 3.77-15.42a33.14 33.14 0 00.34-5.48c-3.29-3.15-7.58-3-11.63-3.29-6.49-.43-6.5-.28-4.86-6.84 1-4 2.09-8 3-12.06.37-1.7 1.44-3.46.15-5.24-2.25 3.46-4.07 7.31-6.82 10.32-8.23 9-9.7 20.09-8.92 31.2.93 13.18-1.18 26.15-1 39.21a50.74 50.74 0 01-7.89 28.89c-1.85-.83-1.17-3.2-2.34-4.52-1.87 6.46-.83 13.17-1.74 19.76-2 14.64-3.37 29.37-4.82 44.08-1.24 12.72-2.23 25.48-3.35 38.22q-1.07 12.16-2.17 24.32c-.35 3.86-1.92 6.2-6.35 5.67a64.31 64.31 0 00-7.48-.07 80.7 80.7 0 00-8.25.33c-3.59.49-5.18-.74-4.74-4.39h-1.19c.28 3-.61 4.83-4.05 4.22s-7.39 1.79-10.37-3c-1.58-2.55-5.08-.76-6.43 2.41 2.26 3.19 2.18 5.6-2.19 6.58a3 3 0 01.2 1c-1.77 9.75-1.84 9.86 6.81 15.31 8 5 15.3 11.06 24.15 14.59a29.8 29.8 0 0111.72-1.89c21.26.19 42.5-.84 63.75-1.16a3.35 3.35 0 012.48.69l-75.57 6.35c0 10.51-1.33 20.93-2.4 31.35-.3 2.91-2.7 5.78-2.46 8.52.91 10.71-3.35 21.52.1 32 2.37 7.19 5.75 14.06 7.7 21.44.25.94 1.17 2 .94 2.73-3.09 9.75.34 18.88 2.61 28.1a5.87 5.87 0 01-1.07 5.59 9.41 9.41 0 00-2 6c-.74 25.54-4.93 50.66-10.07 75.59-1.3 6.32-5.28 12.18-12.39 14.41-22.92 7.16-43.48 19-63.46 32a13.87 13.87 0 009.09 1.57c7.58-.93 15.2-1.65 22.81-2.33a14.38 14.38 0 006-2.15c10.81-6.27 21.41-12.85 31-21a28.93 28.93 0 0113.28-6.68c5.32-1.05 9.62-3.8 14-7.13 11.53-8.73 23.15-17.42 35.88-24.46 3.49-1.93 6.75-4.27 10.05-6.53a7.42 7.42 0 002.8-2.76c3.95-9.78 12.3-16 19.14-23.34s13.77-14.89 20.43-22.56a159 159 0 0127.56-24.51c9.51-6.82 16.9-15.46 23.52-24.9 4.58-6.54 11.45-10.4 17.28-15.69 1.52 2.15 0 3.2-.74 4.27a235.23 235.23 0 01-45.1 47c-7.37 5.74-13.33 13.45-19.3 20.79-7.91 9.72-16.81 18.44-25.54 27.36-4.66 4.76-9 9.78-13.61 14.61-3.09 3.25-4 7.34-4.19 11.48-.31 7.31-.5 14.64.86 21.92a8.39 8.39 0 004.38 6.28c4.65 2.59 5.42 6.36 3.48 11a63 63 0 01-7 12.68c-1.67 2.34-1.34 4.65-1 7.47 1.35 12.5 10.53 21.85 13 33.86.91 4.37.31 7.57-2 11.57-9.1 15.89-23.49 25-39.31 32.58-3.11 1.48-6.57 1.29-9.8 1.5-11.25.77-22.5 2.68-33.83.55-4.7-.88-9.27.42-13.72 1.93-13.41 4.53-27 8.61-39.85 14.64-9.76 4.57-20.2 5.28-30.62 6.22-9.44.85-18.93 1.09-28.33 2.2-8.35 1-14.86 6.54-22 10.36l-1.23.67h253.3a150.58 150.58 0 0110.7-18.08c7.14-10.24 14.11-20.65 20.47-31.39a34 34 0 0118.91-15.3 17.49 17.49 0 0010.48-9.19c8.11-15.84 18.27-30.57 25.21-47.07 2-4.69 6.37-7.84 10.67-10.25 8.53-4.78 13-12.26 16.61-20.92 5.86-14 11.17-28.41 19.05-41.21 8-13.06 10.73-27.38 14.76-41.5a66.56 66.56 0 014.84-12c11.13-22 22.31-44 30.26-67.39a18.25 18.25 0 015-7.9 33.86 33.86 0 007.6-9.21c2.26-4.37 6.22-6.26 10.51-7.84 3.43-1.27 4.68-.24 4.09 3.4-1 6.23-1.83 12.5-2.85 18.74a64.29 64.29 0 001.67 29.14 22 22 0 01.15 9.92c-1.2 7.21-3 14.37-3.62 21.63-.84 9.54-8.07 14.71-13.5 20.91-8.74 10-16.32 20.38-21.53 32.73-4.38 10.4-10.18 20.22-15.5 30.21-3 5.55-7.64 9.84-12.43 13.56-11.93 9.28-18 21.28-19.11 36.13-.23 3-1.36 5.85-1.7 8.81a36.59 36.59 0 01-9.69 21.29c-11.94 13.18-22.36 27.67-34.36 40.83a29.16 29.16 0 01-10.1 7.13c-4.88 2.15-9.65 4.53-14.49 6.75a13.74 13.74 0 00-6.3 6.15c-6 10.65-12.17 21.24-18.23 31.88h31.23c-.27-9.46 4.46-17.87 7.33-26.65.79-2.43 3.45-4.5 5.67-6.18 10.85-8.22 17.79-19.54 24.83-30.79 1.07-1.71 1.86-3.68 3.64-4.68 14.27-8 23.67-20.64 32.56-33.84 3.55-5.26 7.26-10.33 9.41-16.39 3.2-9 11.06-13.89 17.89-19.66q3.81-3.21 7.77-6.25c1.57-1.2 2.74-2.69 2.47-4.63-1.18-8.37 4.06-14 9-19.21 9.4-10 17.18-21.2 25-32.37 3.58-5.12 7.83-7.7 14.15-7.58 16.83.31 33.48-2.09 50.19-3.68 1.78-.17 3.6 0 7 0-6 5.15-10.78 9.52-15.85 13.46-10.4 8.07-20.38 16.54-29.07 26.48a21.73 21.73 0 00-5.2 13.71c-.12 2.17 0 4.37-1.48 6.18-5.89 7.15-9.28 15.76-13.88 23.66-1.39 2.39-2.84 3.15-5.64 2.63-5.71-1.07-11.51-1.7-17.28-2.5-6.17-.85-9 1-10.51 7.39a49.07 49.07 0 01-5.6 13.8c-8.78 15.11-20.14 28.6-28 44.32-.29.6-.72 1.13-1 1.72-4.75 9.2-2.93 12.17 7.35 13 7.28.57 14.5 1.71 21.82 2.18 9.33.59 19.18 10 20.83 18.44.74 3.8.09 6.67-3.53 8.94-4.79 3-9.27 6.49-13.82 9.85-3 2.24-5.6 4.89-6.58 8.68h483.47c-2.37-3.33-4.74-6.67-7.08-10-15.15-21.68-30.39-43.29-45.28-65.15-3.62-5.33-6.08-11.45-9-17.27q-12.13-24.63-24.17-49.31c-.62-1.29-1.55-2.52-.34-4.58q44.36 73.16 88.7 146.34h171.69c11.27-13.07 22.64-26.06 33.85-39.19 3.47-4.07 7.09-6.35 12.77-6.08 18.31.87 36.6-.78 54.91-.87 3.44 0 4.88-1.32 4.69-4.74-.32-5.48.54-11-.55-16.45a3.48 3.48 0 01.39-2.87c8.76-12.51 11.27-27.61 17-41.36 3-7.21 5.42-14.68 8.1-22 .39-1 .67-2.21 2.1-2.79 2.17 3.53 2.86 7.46 4.06 11.19l16 50c3.41 10.61 1.4 21.5 1.7 32.27.09 2.85-2.45 3.33-4.61 3.61-24.07 3.11-48.15 6.12-72.22 9.24-11.37 1.47-22.71 3.18-34.09 4.65a10.94 10.94 0 00-6.83 3.67q-10.39 10.9-20.8 21.8h234.29q19.17-39 35-79.56c7.19-18.28 14.8-36.39 21.9-54.71 2.64-6.79 7.46-11.93 12.31-16.73 9.58-9.49 14.58-21.31 19.21-33.42a282.05 282.05 0 0112.88-29.22c9.78-18.81 17.41-38.52 25.47-58.06a17 17 0 011.57-2.52c.09-.26.19-.51.29-.76.57.44-.11.56-.21.83a212.26 212.26 0 01-11.86 38.54c-4 9.86-8.24 19.7-10.28 30.21-1.2 6.18-1.34 12.58-2.61 18.74-2.83 13.71-8.84 26.52-11.76 40.23-1 4.56-2.29 9-3.36 13.57-.77 3.3-1.84 6.71-4.17 9-9.26 9-12.15 21-15 32.65-4.32 18.06-12.88 33.9-23.55 48.68A133.31 133.31 0 001527 908.4h391.87v-45.51c0-1.66.19-3.32.29-5 .08-2.14.22-4.3.22-6.46zM427.66 802.06c-8.3 3-10.82 8.9-9.8 17.47.83 7.05.27 14.26.61 21.39.12 2.55-.89 3.15-3.08 3.3-6.28.43-8.6-1.44-8.29-7.75.44-8.77 1.07-17.54 2.08-26.26.91-7.83 4.71-10.82 12.72-11h8.41c.07.32.15.64.22 1a15.06 15.06 0 01-2.87 1.85zm83.61-401.59c4.2-.17 2.53 3 2.61 5 .16 4 0 8 0 12 0 4.32-.22 8.65.07 12.95.21 3-.59 4-3.72 4.12-7.64.22-7.73.39-7.37-7.32.33-7.31 1.21-14.6 1.27-21.9.06-5.77 3.87-4.72 7.14-4.85zM479.05 282c-.08-1.85-.64-4.67 2.24-4.58s1.89 2.92 2.19 4.81c-.46 1.45 1 3.93-2.12 4-3.48.12-2.23-2.58-2.31-4.23zm-.18 21.61c-.15-1.66-.64-4.29 2-4.24 3.05 0 1.83 2.87 2.17 4.67-.48 1.49 1 4.11-2.11 4.07-3.43-.05-1.93-2.87-2.06-4.52zM409 391.1c.72-9.26.91-18.6 2.28-27.77 1-6.58 5.52-11.94 8.69-19.23a78.67 78.67 0 012.77 29c-1.08 13.06-2.7 26.08-2.73 39.22 2.13-1.18-.52-4.72 3-5.5 6.17-1.36 7.45-.37 7.31 5.87-.18 8.14-.24 16.3.08 24.43.14 3.48-1 4.77-4.17 4-2.66-.62-7.33 2-7.12-3.92.14-4 .43-8-.31-11.92-1.89 6.81-.72 13.84-1.53 20.78-1.4 11.84-1.65 23.83-2.22 35.76-.39 8-4 10.58-11.73 8.28-2.41-.71-2.46-2.47-2.3-4.32 1.55-17.68 3.21-35.35 4.71-53 1.2-13.88 2.2-27.78 3.27-41.68zm-30 36.27c1.31-15.2 2.55-30.4 3.82-45.6.39-4.63.83-9.26 1.16-13.89.47-6.75 4.07-15.71 9.22-22.19 2.05 8.9 3.33 17.3 2.53 26.14-1.13 12.54-2.92 25.05-2.41 37.7a4.12 4.12 0 01.9-.43c8.66-1.69 9.16-1.35 8.53 7.23-.53 7.3-.05 14.57.21 21.84.12 3.14-.58 4.73-4 4.31a7.91 7.91 0 00-2.47.17c-3.76.83-5.69-.32-4.95-4.45-2.85 5.34-1.72 11.3-2.32 16.94-.69 6.59-.15 13.31-.14 20 3.48 3.11 3.1 5.75-1 7.92-.58 6.62-6 9.7-12.2 7-2.23-1-2-2.91-1.9-4.67q1-14.14 2.25-28.28c.87-9.93 1.88-19.82 2.77-29.74zm17.55 45.79c-6.53.56-6.63.6-6.41-6 0-1.16.07-2.32.14-3.47.22-3.95 5.17-6.85 8.7-5.1 1.12.55 1.12.55 1 7.39-1.38 2.02 2.55 6.66-3.46 7.18zM355 413.68c1.4-16.55 2.41-33.15 4.32-49.64.7-6 5-11.1 8-17.53 4.68 11.21 3.6 21.83 2.68 32.49s-1.85 21.18-2.77 31.77c8.86.28 8.67.27 8.32 9.39-.25 6.29 0 12.61.19 18.91s-.07 6.56-6.23 6.17c-1.47-.09-3 0-4.44 0q-.49 7.51-1 15c9.12-.1 8.86-.09 9.07 8.67.11 4.31-1.15 6.08-5.47 5.65a24.47 24.47 0 00-4.42.31c-.27 4.31-.16 8.64-1.12 12.92-1.36 6.08-6.1 2.89-9.37 3.42s-4-1.79-3.76-4.46c.76-10.28 1.52-20.55 2.37-30.81 1.16-14.13 2.43-28.19 3.63-42.26zM340.06 439c.36-8 1.22-15.93 1.62-23.9.27-5.28 4.27-2.9 6.68-3.4 3.13-.65 2.77 1.84 2.76 3.86v13h-.05c0 4.16-.23 8.34.07 12.48.24 3.45-.85 4.55-4.37 4.6-6.86.04-7.04.26-6.71-6.64zm-2.71 26.52c-.17-1.63-.53-3.6 2.27-4.16 6.39-1.28 7.43-.44 7.23 6.66-.22 7.87-.36 8-7 7.84-.5 0-1.22.19-1.46-.06-2.94-3.17-.68-6.89-1.04-10.32zm1.87 11.95c2.18.21 3.47 1.4 3.48 3.48a3.13 3.13 0 01-3.38 3.42 3.06 3.06 0 01-3.38-3.38c-.02-2.22 1.28-3.28 3.28-3.56zM321 499.79c35.36-.71 70.72-2.54 106.1-1.14-35.32 2.42-70.71 1.45-106.1 1.14zm97.1-22.12a3.37 3.37 0 116.74-.13c.05 2.14-1.22 3.31-3.28 3.64-2.11-.24-3.4-1.42-3.44-3.51zm7.59-5.76c-2.54.12-6.55 1.65-7.35-.62-1.34-3.76-1.38-8.66.45-12.14 1.2-2.27 5.72-2 8.76-1.56 2.55.41 1.17 3 1.41 4.58a19.47 19.47 0 010 2.8c-1.25 2.03 2.37 6.69-3.25 6.94zm16.45 12.3c-.28 6.05-4 4.82-7.48 5.05-3.81.26-6.1-.7-5.74-5.17 1.21-15.06 2.24-30.13 3.42-45.19.81-10.26 1.81-20.5 2.62-30.76 1.12-14.07 2.06-28.15 3.22-42.21.66-8.05 5.42-14.41 9.18-21.33 1.46 7.47 4.21 14.48 3.11 22.37-1.38 9.85-1.74 19.84-2.48 29.77-1.29 17.39-2.77 34.76-3.74 52.16-.64 11.78-1.53 23.54-2.09 35.31zm25.91-.31c-.31 6.35-4.93 3.85-8.08 4.29-3.57.5-5.34-1.07-5-4.82.38-4.3.66-8.61 1-12.91a4.17 4.17 0 01-.5 0c-3.22-.46-7.9 2.21-9.3-.4-1.57-2.93-.2-7.41-.17-11.22 0-1.72.92-2.35 2.48-2.37l8.46-.12q1-9 2-18.08c-11.57 1.1-11.63 1.1-11.05-10.52.32-6.48 1-12.93 1.3-19.41.26-5.55 4.54-3 7.09-3.53 3.24-.62 2.65 2.08 2.54 4-.45 8.14-.77 16.28.17 24.41 1.3-1.77 1-3.82 1-5.8.34-17 2.68-33.78 3.69-50.69.57-9.75 1.38-19.24 6.53-27.82.92-1.54 1.45-3.37 3.81-4.77 1.56 7.46 3.55 14.46 2.77 22-1.1 10.74-1.94 21.5-2.75 32.27q-2 26.83-3.87 53.68c-.76 10.58-1.58 21.19-2.1 31.81zm8.9-4.55a3.59 3.59 0 01-.17-7.17c2.48-.05 3.41 1.59 3.76 3.6-.38 2.16-1.34 3.57-3.54 3.57zm20 3.76c-.16 2.62-1.36 4-4 4h-6c-3.08.06-4.21-1.36-3.61-4.38a41.57 41.57 0 00.15-14.88c-14 .76-10.81 3.31-10.35-10.92.16-5.22 5.18-2.16 7.93-2.91s2.8 1.37 2.72 3.35c-.1 2.62-.16 5.24-.23 7.86l-.06 2.6a6.09 6.09 0 00.56-.72 6.49 6.49 0 00.79-1.49 6.91 6.91 0 00.25-.77c.77-2.87-.05-6.05.46-8.95 1.12-6.51 1-13.23 1.4-19.86-11.48.38-11.55.38-10.86-11.3.37-6.28 1.17-12.54 1.48-18.83.27-5.47 4.32-3.25 7-3.62 3.41-.48 2.53 2.22 2.49 4-.17 8.28-.46 16.56.15 24.83 1.79-9 1.84-18.11 2.7-27.17 1.37-14.37 1.83-28.83 3.34-43.18.72-6.83 5.48-12.31 8.69-19.53 2.4 6.39 3.74 12.08 3.56 17.62-.4 12.59-1.73 25.16-2.66 37.73-.95 12.74-1.93 25.48-2.79 38.23C498.94 451 498 467 497 483.11zm14.17-23.05c-1 2.18 2.15 6.59-3.83 6.93-7.44.43-7.64.69-6.92-6.78.25-2.59-1.93-6.71 3.11-7.5 7.82-1.23 7.86-1.2 7.65 7.35zm24.58 54.45c-2.08.11-1.49-1.75-1.49-2.91s-.57-3.11 1.38-3 1.06 2 1.3 3.14c-.16 1.04.45 2.68-1.18 2.77zm37-28.09c-1.92.06-1.36-2-1.29-3.15.08-1.35-.84-3.58 1.16-3.77 2.31-.21 1.12 2.13 1.54 3.36-.48 1.22.89 3.48-1.43 3.56zm4.42 28.91c-2-.24-.91-2.1-1.26-3.23.35-1.08-.62-3.1 1.63-2.82 1.9.24 1.22 2.05 1.26 3.25s.46 3.04-1.65 2.8zM604 476.71c-9.06-2.7-18.46-3.17-27.86-3.78-17-1.11-33.9-1.44-50.81.71-3.13.4-6.26.87-9.38 1.34-2.21.33-3.44-.07-3.19-2.84 1.38-15.22 2.63-30.45 3.9-45.68.81-9.77 1.55-19.54 2.33-29.31 1-12.92 1.68-25.88 3.26-38.73.77-6.24 5.08-11.39 8.34-18.3 2.81 9.41 3.95 17.58 3.15 26.07-1 10.91-1.89 21.84-2.73 32.77-1.31 17.22-2.54 34.45-3.79 51.68-.15 2.1-.7 4.25.5 6.61 8.55-6 14-13.07 14.45-24.3.87-20.39 3.53-40.71 4.54-61.11.54-10.77 2.77-20.66 8.4-29.8.32-.52.74-1 1.63-2.18 1.54 8.7 4 16.32 2.65 24.73-1.38 8.66-1.59 17.52-2.2 26.3Q556 407.56 555 424.22c-.09 1.6-.46 3.32.84 5.19 7.23-7.11 8.09 3 12.79 4.87.79-7.3 1.7-14.3 2.26-21.33 1.45-18.22 2.53-36.47 4.23-54.66.64-6.86 5.28-12.29 8.46-19.05 5.35 13.85 2.92 26.81 2.1 39.68-.66 10.27-1.91 20.51-2.64 30.78-.84 11.76-1.35 23.55-2.1 35.33-.21 3.25 1 5.62 3.22 8 6.49 6.9 12.75 14 19.09 21.07a2.29 2.29 0 01.75 2.61zM635.06 454a66.71 66.71 0 00-.15 9c0 1.17.06 2.35.06 3.52V481.49c0 2.12-.69 3-2.87 2.94-5.49-.09-11-.11-16.47 0-2.4.05-3.19-.85-3.17-3.19.08-10 .06-20 0-29.95a4.77 4.77 0 012.26-4.16 14.56 14.56 0 0113.72-2.16c4.34 1.35 7.18 3.71 6.62 9.03zm24.71 54c.11-7.28-.91-6.12 6.27-6.55 4.27-.25 6.17.83 5.56 5.42a66.26 66.26 0 00-.06 8.46c0 6.48 0 6.48-6.35 6.46-5.42 0-5.42 0-5.42-10.3 0-1.13-.02-2.29 0-3.49zm23.67 72.66c-.16.75-1 .75-1.64.54-6.06-2-11.8.62-17.67 1.23-1 .1-2 .46-2.94.59-9.21 1.24-10.29.22-9.07-8.75.88-6.42 1.84-12.83 2.82-19.23.2-1.32-.25-3.5 2.2-2.93 1.81.42 1.86 2.15 1.63 3.71q-1.21 8.13-2.48 16.26c-.8 5.22.06 6.2 6.34 6.09 3.34-.45 7.64-.89 11.89-1.64 3.26-.58 5.88.56 8.33 2.41a2.08 2.08 0 01.59 1.75zM673.2 480.45c-2.79.09-3.88-.8-3.77-3.67.13-3.38.1-6.77.07-10.16v-4.28c0-1.89.06-3.78.09-5.67a59.45 59.45 0 00-.18-6.81c-.46-4.76 2-7 5.89-8.58a14.57 14.57 0 0111.65.25c3.45 1.52 5.4 3.75 5.23 8-.35 9-.22 18 0 27 .06 3.06-.86 4.11-3.94 4-5.05-.3-10.05-.26-15.04-.08zm21.06 41.67c-4.6.19-5.72-1.4-5.39-5.66a122.89 122.89 0 000-14.49c-.22-4.73 3.16-3.19 5.47-3.34s5.23-.67 4.86 3.47c-.25 2.81 0 5.66 0 8.49a52 52 0 000 6.49c.56 4.01-1.1 4.92-4.94 5.04zM770 733.23c-7.73 8.75-16.63 16.27-25.55 23.71-4.38 3.66-6.74 8.11-8.4 13.19-1.24 3.79-2.24 7.66-3.14 11.55-1.95 8.39-6 15.52-11 22.63-8.08 11.55-12.49 24.65-8.78 39.12a15.24 15.24 0 01-1.4 11.51c-2.63 5-5 10.15-7.25 15.33a7.7 7.7 0 01-6.88 4.89c-6.11.68-12.22 1.38-18.3 2.31-11.55 1.76-20.22-3.41-27.83-11.27-1.31-1.35-1.23-2.89-.89-4.64a248.6 248.6 0 003.7-25.13c.92-10.32 7.35-18.38 14-25.89 2.81-3.17 7.46-2.45 11.16-3.85a33.35 33.35 0 018.68-2.2c7.6-.66 11.81-5.39 14.93-11.62 4.77-9.53 9.48-19.09 9.82-30.06a6.09 6.09 0 013.77-5.92q25.42-11.62 50.84-23.25a10.13 10.13 0 012.44-.44l.19-.17zm74.74-18.36c-2.52-.77-5.5-1-7.32-2.93-5.89-6.42-14-10.81-17.54-19.39-3.4-8.37-9.33-14.8-15.84-20.82-.93-.86-2.44-1.7-2-3.18s2.18-1.19 3.45-1.38c2.13-.32 4.25-.79 6.4-.92 5.25-.31 9.17 1.37 11.52 6.67 5.68 12.8 13.85 24.19 21.09 36.1l2.42 4c.24 2.2-.98 2.22-2.17 1.85zm-12.52-80.59c-2.31.85-4.05 1.64-4.29 4.65-.73 9.21-4.45 12.38-13.61 11.06-3.8-.54-6.4.19-8.7 3-1.21 1.49-2.85 2.5-4.84 1.83-9.73-3.27-19.72-1.54-29.62-1.59-3.44 0-6.24-.63-7.74-4.11-.88-2.06-2.62-2.62-4.77-3-8.11-1.32-16.74.12-24.25-4.52a5.6 5.6 0 00-2.43-.37c-2.35-.17-4.91 1.77-7-.78-2.77-3.37-5.16-6.92-6.09-11.29-.41-1.93.2-2.88 2.16-3h130.28c.95 0 1.9.1 2.84.15-7.65 1.94-14.67 5.31-21.93 7.97zm37.93-33.47a16.83 16.83 0 01-.14-3.18c0-.94.09-1.87.09-2.79v-.85a27.48 27.48 0 01.06-4.63c.43-2.94 2.2-4.94 5.29-5 3.39 0 4.5 2.31 4.56 5.32a49.32 49.32 0 00.73 9.92c.52 2.34.07 4.58-3 4.45-2.89-.05-6.8 1.56-7.58-3.24zm11.54 41a2.83 2.83 0 01-2.53-3.15 3.07 3.07 0 013-3.24 3.1 3.1 0 012.77 3.49c-.12 1.95-1.34 3.09-3.23 2.91zm9.4-37.5c-3.49 0-5.38-1-5.13-4.84.19-2.83-.05-5.67.11-8.5.17-3.07 1.18-5.67 4.91-5.67 4 0 5 2.56 5 6v4c0 1.34-.09 2.68 0 4 .37 3.63-1.19 5.05-4.88 5.02zm155.55-154.11c0 1.09.27 2.6-1.31 2.7-1.74.1-1.25-1.49-1.42-2.57.31-1.06-.63-3 1.49-2.88 1.6.08 1.22 1.67 1.24 2.75zm-3-22c2.1-.1 1.8 1.51 1.81 2.78s.32 2.95-1.73 2.86-1.4-1.83-1.55-3c.09-1.15-.36-2.59 1.43-2.67zm-8.33 166.37a5.34 5.34 0 014.39-4.86c2.82-.51 4.36 1.57 5.28 3.7 1.91 4.44 1.51 9.28.63 13.75-.69 3.47-4.45 1.79-6.9 2-2.13.19-3.53-.83-3.58-3.15v-5.49h-.15a59.22 59.22 0 01.29-5.98zm-4.76-35.68c0 2.67.53 5.13-3.78 5.1s-3.82-2.48-3.66-5.07c-.18-2.77-.52-5.08 3.7-5.11 4.33-.06 3.66 2.47 3.7 5.05zm-4.85-50.75c4.86-.12 3.7 2.92 3.84 5.5s.26 4.64-3.65 4.72c-4.81.1-3.73-2.87-3.83-5.51s-.33-4.65 3.6-4.74zm-7.7 96.59c.17-3.13 0-6.28.07-9.41s1.61-5.72 4.9-5.77 4.81 2.48 5 5.64c.12 1.81 0 3.63 0 5.45 0 1.32-.08 2.65 0 4 .25 3.44-1.35 4.69-4.71 4.65s-5.51-.52-5.26-4.56zm-1.14 20.64c.55 7.45.66 14.94 1 22.41.82 34.53 1.63 69.06 2.46 104.42-4.55-2.79-8.61-4.6-11.68-8-6.76-5.87-10-12.74-9.79-22.23.6-31.29-1.5-62.59-.82-93.9.15-6.87 3.75-11 9.64-10.88 4.72.1 8.82 3.41 9.17 8.18zm-1.78 128.19c-.32 2.09-1.36 3.28-3.32 3.08a2.78 2.78 0 01-2.55-3.12c.09-1.8 1-3.27 3-3.17s2.79 1.56 2.85 3.21zm-14.51-161a5 5 0 014.14-3.87c2.37-.45 3.83 1.13 4.73 2.93 2.34 4.67 2.13 9.83 1.1 14.63-.73 3.4-4.49 1.7-6.95 1.92-2.16.2-3.46-.93-3.49-3.21v-5.48h-.26a63.27 63.27 0 01.71-6.95zm-3.69-213.76c3-.14 2 2.49 1.94 4s1.18 4.2-1.82 4.1-1.31-2.75-1.84-4.19c.36-1.47-.86-3.82 1.7-3.94zm-13.81 216.5c.15-3.48 1.43-6.58 5.28-6.64 4.16-.07 5.42 3.17 5.59 6.84.06 1.49 0 3 0 5-.92 2.4 2.39 7.36-4 7.71-6.12.33-6.83-.22-6.87-6.46-.07-2.14-.07-4.3 0-6.45zm5.93 33.61c.16 5.31.4 10.61.6 15.91 1 26.57 2.45 53.15 2.56 79.72 0 9.26-.52 10.07-11.33 5.76-6.81-3.79-10.11-8.66-10.17-17.38-.17-25.09-1.66-50.17-1.78-75.27 0-2.81-.8-5.61-.81-8.42a10.57 10.57 0 0111-11c6.09.09 9.75 4.05 9.93 10.68zm-12-35.33v4.95c0 1.32-.09 2.65 0 4 .31 3.76-1.57 4.81-5.06 4.81s-5.24-1.17-5-4.89c.19-3-.06-5.94.15-8.9.22-3.14 1.63-5.42 5.25-5.23 3.33.14 4.58 2.22 4.66 5.26zm-8.54-107.49c4.48 0 3.57 2.67 3.59 5.05.08 2.75.62 5.2-3.71 5.18s-3.62-2.66-3.64-5.18-.61-5.07 3.74-5.05zm-1.61 241.57c.2 1.89-.87 3.05-2.7 3.52a3 3 0 01-3.1-3.12 2.71 2.71 0 012.45-3.14 2.76 2.76 0 013.33 2.74zm-12.63-163.27c2.27 0 2.77 1.88 2.85 3.87-.15 1.91-.81 3.69-3.07 3.54-1.93-.12-2.63-1.85-2.63-3.58s.57-3.83 2.85-3.83zM951 602.65c.18-3.13 0-6.27.07-9.41.07-2.85 1.4-4.71 4.42-5 3.28-.27 4.94 1.57 5.33 4.57a44.93 44.93 0 01.05 5.92h.13c0 1.32-.08 2.65 0 4 .26 3.54-1.54 4.54-4.8 4.55s-5.46-.7-5.2-4.63zm.34 16.56c5.33.11 8.53 2.89 8.6 8.25 0 3.28 1.65 6.56.12 9.84a8.65 8.65 0 01.89 4.34q1.14 36.47 2.32 72.93c.16 5.18-2.48 6.78-7.06 4-2.47-1.47-5.74-2-7-5.2-4.42-4.67-6.13-10-6.41-16.63-1-22.63-.66-45.26-.76-67.88-.04-6.67 3.08-9.77 9.26-9.65zm-12.61-48.44c1.32.1 1.71 1.33 1.82 2.62-.21 1.27-.51 2.7-2.21 2.56-1.33-.11-1.8-1.4-1.81-2.56-.04-1.39.47-2.73 2.16-2.62zm-3.86 20.07a4.69 4.69 0 014.87-3.5c2.51.1 3.81 1.75 4.66 3.86 1 2.54.44 5.23.64 7.21 0 8.45-1 9.71-6.6 8.69-1.18-.22-2.68-.47-2.8-1.67-.51-4.85-2.44-9.68-.81-14.59zm1.67 105.74a3 3 0 012.63 3.56c-.14 1.69-1 2.84-2.77 2.84-2 0-2.92-1.46-2.9-3.27a2.94 2.94 0 013-3.13zm-17.32-107.45a4.38 4.38 0 014.52-2.56 4.77 4.77 0 014.19 3.1 8.11 8.11 0 01.31.82 8.54 8.54 0 01.25.82 13.77 13.77 0 01.3 1.53v.14c.07.53.11 1 .13 1.58v3.47c0 1.42 0 2.64-.14 3.66a10.83 10.83 0 01-.32 1.86c0 .21-.11.4-.17.58l-.12.3c-.07.17-.15.33-.23.48-1 1.8-3 2-6.66 1.21-1.19-.25-2.56-.54-2.75-1.8-.72-5.09-1.39-10.26.69-15.19zm-5 62.29c.33-9.76-.85-19.62 1.72-29.26 1.51-3.39 4-5.45 7.83-4.65s6.79 3.33 6.85 7c.28 18.67.13 37.35.13 56.92-4.84-7.22-5.81-14.94-8.85-21.83-7.7-.46-7.9-.47-7.65-8.18zm1.2 21.29c-.12 2-1.3 3.49-3.52 3.26-1.74-.18-2.46-1.59-2.33-3.24a3.14 3.14 0 013.07-3.1c1.94.3 2.9 1.43 2.81 3.08zM902 599.64c.33-2.94 0-5.95.16-8.91s1.92-4.78 4.67-4.89c3-.12 4.9 1.83 5.13 4.91.17 2.3 0 4.62 0 6.93h.15a14.53 14.53 0 000 2c.4 2.81 1.37 5.67-3.42 5.64-4.07-.05-7.35-.17-6.69-5.68zm124.42 197c-9.41-14.07-19.42-27.78-28-42.33-5.15-8.72-11.08-12.28-21.18-11.24-11.06 1.13-22.21-1.47-33.37-.82-3 .17-4.34-1.47-5.45-4.05-6.48-15-13.33-29.77-19.57-44.83-1.83-4.41-4.3-6.74-8.89-7.42a37.14 37.14 0 01-9.65-2.89c6.19.84 12.42-.59 18.54.74 2.05.45 2.49 3 3.3 4.78 6.41 14.08 12.85 28.15 19.08 42.31 1.3 2.95 2.9 4.18 6.23 4.52 14.08 1.46 28.24.56 42.33 1.75 3.11.27 5.21 1 6.84 3.83 9.9 17.52 20 34.95 30 52.43a15.51 15.51 0 011 2.65zm3.62 4.63l-1.32-1.72.64-.36c.23.69.47 1.37.7 2.06l1 1zm2.55-12.45a2.71 2.71 0 01-2.65-3c0-1.9.78-3.29 2.78-3.34s2.77 1.43 3 3.21c-.33 1.81-1.16 3.22-3.18 3.09zm14.89-54.11c-3 6.08-5.63 12.36-8.41 18.56-7.46 2.45-8.73 1.42-9.08-6.09-1.29-27.86-2-55.74-3.26-83.6-.5-11.25.09-22.56-1.49-33.81-1.09-7.8 3.28-12.56 10-12.5 5.63 0 9.17 3.54 9.86 9.15a202.58 202.58 0 011 24.87c1.43 6.54.93 13.22 1.32 19.83 1 16.88 1.65 33.79 2.65 50.68a24.63 24.63 0 01-2.64 12.87zm4.55-130.9c.17-2.82-.08-5.68.17-8.49s1.64-5.1 5-5 4.7 2.1 4.78 5.2v5c0 1.17-.09 2.34 0 3.5.36 3.81-1.17 5.34-5.14 5.35-4.12-.02-5.09-2-4.84-5.6zm18.32 92.14c-2.8 2.83-5.54 5.71-8.3 8.57l-5.31 9.85a1.85 1.85 0 01-1.6-2.11c.27-9.49-1-18.9-1.25-28.38-.47-19.62-1.08-39.23-.82-58.86.07-5.51 3.12-8.56 8.17-8.73a9.21 9.21 0 019.71 8.15c.44 3.46.85 6.93 1 10.41.34 6.64.51 13.28.75 19.92.46 10.14.7 20.3 1.49 30.42a12.78 12.78 0 01-3.89 10.72zm3.94-85.65c-3.29 0-5.5-.64-5.27-4.61.18-3.12-.06-6.27.07-9.41s1.65-5.7 5-5.69 4.77 2.58 5 5.72c.1 1.81 0 3.64 0 5.45 0 1.32-.08 2.65 0 4 .18 3.43-1.55 4.52-4.85 4.5zm289.54-52v8.44c0 2 0 3.52-2.77 3.52-2.48 0-3.09-1-3.06-3.26.1-6 .07-11.9 0-17.85 0-2 .51-3 2.77-3 2.48 0 3.15 1 3.07 3.27-.14 2.89-.06 5.87-.06 8.84zm6.7 9.33c0 1.45-.28 2.51-2.15 2.58-2 .08-2.54-.91-2.51-2.68V561v-2.91-4.72-4.72c0-1.57.17-2.55 2.1-2.59s2.58.89 2.57 2.7c-.08 6.24-.06 12.54-.06 18.83zm4.77 2.53c-2.31.09-2.18-1.49-2.18-3v-8.93-8.93c0-1.47-.23-3.13 2.11-3.08 2 0 1.9 1.44 1.9 2.75v18.37c-.06 1.24.14 2.66-1.88 2.78zm15.44-4.65c-2.36-5-1.93-10.13-.54-16.68 2.69 6.49 1.85 11.56.49 16.64zm7.28-51.79c-5.44.74-10.87 1.61-16.28 2.55-2.66.47-3.65-.41-3.51-3.1.16-3.16 0-6.34 0-10.65-.69-6.31-.46-13.49 4.89-19.58 4-4.55 6.81-4.85 11.32-.71 4.23 3.88 7 8.34 6.58 14.43-.28 4.48.06 9 .14 13.48.03 2.14-.94 3.24-3.16 3.54zm91 194c-.12 3.09-1.93 5.28-4.09 7.17-4.83 4.21-7.79 9-8.21 15.81s-5.59 12-8.87 17.69c-14.17 24.84-24.54 50.91-26.93 79.71 0 .27-.33.51-1 1.55-3.69-9.35-7.23-18.18-10.59-27.08a5.29 5.29 0 01.33-3.88c5.54-10.23 5.77-21.78 8.29-32.76 1.78-7.78 3.39-15.62 5.45-23.33 1.74-6.5 8.12-9 12.58-13 6.89-6.24 14.35-11.73 19-20.24 3-5.61 3.75-11.68 5.14-17.62 2.45-10.5 4.58-21.08 7.14-33.05 4.04 17.1 2.28 33.04 1.68 48.95zM230 867.36c13.4-4.24 26.74-8.25 37.54-17.82 3.89-3.44 8.94-3.74 13.66-4.11 15.51-1.22 30.53-4.93 45.61-8.34 5.33-1.2 9-5.54 13.4-8.49 1.7-1.15 1-2.24-.55-2.92a11.52 11.52 0 00-3.29-1.15c-8.31-1-12.77-6.36-15.46-13.57-1.61-4.32-4.81-5.57-8.91-6.79-16.13-4.8-30.85 0-45.54 5.78-2.41.95-2.45 2.84-2.51 4.89a172.65 172.65 0 001 21.92c.16 1.66.86 4.09-1.37 4.83-2 .66-2.54-1.71-3.65-2.84-6.14-6.22-10.5-13.72-15.11-21-4-6.36-10.36-9.48-17.8-7.93-3.93.82-7.27.2-10.21-2.43-7.71-6.89-17.59-7.46-27-9-9-1.52-13.74 4.74-17.4 11.42-3 5.52-5.12 11.56-7.49 17.42a16.3 16.3 0 00-.31 10.33c1.88 7.41-1.39 13.3-5.35 19-1.12 1.61-2.75 1.7-4.45 1.7-3.33 0-6.68-.2-10 .06-4.29.34-6.17-1.21-5.86-5.66.14-2.17.9-4.78-1.64-6.37-4.83 8.92-9.82 17.77-14.42 26.82-1.63 3.21-2.77 2.73-5.46 1.17a32.79 32.79 0 01-14.54-17.65 44.06 44.06 0 00-19.71-23.47 8 8 0 00-6.4-1.16c-13.7 2.8-25.41 9.36-36.35 17.82C28.5 859 13.9 862.38 0 867.22v2a4.48 4.48 0 011.05 3.23q0 18-.1 35.95h159.88c12.3-8.93 24.45-18.06 36.82-26.88 9.59-6.83 21.13-10.6 32.35-14.16z"/>
  <path class="cls-2" d="M1104 461.27c-4.94-7.22.67-12.68 2.84-18.93 5.39-15.52 10.16-31.27 15.19-46.92 1.72-5.35 3.45-10.7 5.23-16.2.41.38.76.57.75.73-.62 9.57 5 16.48 10 23.7 7.76 11.21 15.5 22.43 23 33.84 2.12 3.25 4.19 4.1 7.7 2.74a32.09 32.09 0 017.22-1.87c4.29-.6 7-2.36 6.51-7.18 4.69-1.93 5.45-6.25 5.46-10.36 0-13.14-.38-26.27-3-39.22-.52-2.52-1.35-4.8-3.86-6.08-2.08-1.06-2.52-2.42-.74-4.27a21 21 0 002.39-3.2c2.83-4.31 1.79-8.7-2.76-11-2.1-1.08-1.62-2.61-1.22-4.25q3.84-15.51 7.67-31c5.48 10.21 10.93 20.44 16.49 30.61.8 1.46.84 3.74 3.28 3.88 4.74.75 8.06-.75 9.47-5.68.35-1.24 1.36-2.27 2-3.44 5.54-10.37 5.53-10.37 14.07-1.82 4.74 4.75 9.48 9.48 15.09 15.08.24-3.88.27-6.33.56-8.75a192.3 192.3 0 000-47.1c-.5-4.06.84-5.22 4.76-5.39a67.16 67.16 0 0123.07 3.13q2.46 24 4.92 48.09c.28 2.71 7.7 7.94 10.15 6.76 2.23-1.08 1.42-3.59.12-4.89a4.72 4.72 0 01-1.27-5c2.78-10.87 5.64-21.73 8.86-34 5.91 11.9 11.19 22.52 16.46 33.15.21.43.51 1 .37 1.41-4.28 11-1 22.26-.5 33.32.34 7.46-3.37 12.77-6.81 18.2a20.43 20.43 0 00-3.33 13c.84 12.93 1.5 25.88 2.28 38.83a10.48 10.48 0 00.68 2.33c-.1 21.34 1.49 42.6 2.84 63.87.16 2.63.08 5.29.12 7.94-3.61-1.75-2.72 1.22-3 2.87-.42 3 .42 4.79 3.9 4 0 15.47.62 30.91 2 46.32.31 3.47-1 4.74-4.49 4.85-6.4.19-12.58-.31-18.52-3a66.11 66.11 0 00-9.42-3.3 18.93 18.93 0 00-22.15 9.49c-.37.74-.68 1.74-1.31 2.08-9.22 5-17.53 11.19-29.32 10.7-14.35-.6-28.09-5.28-42.45-5a11.79 11.79 0 01-7.82-3c-5.43-4.64-11.12-1.77-16.31-.46-5.46 1.38-10.71 3.36-16.46 3.46-10.5.17-20.92 1.15-31.08 4-4 1.13-5.77.25-5.63-4.34.44-15.14-.8-30.26-1.16-45.39-.5-20.93-1.27-41.88-2-62.81-.38-8.24-.69-16.38-.84-24.53zm34.81-14.06c-.08-1.28-7-8.26-8.15-8.23-1.39 0-7.92 7-7.92 8.41s6.52 7.72 8.08 7.67 8.07-6.47 7.99-7.85zm28.12 103v-16.47c0-1.41.41-3.14-1.91-3.33s-2.32 1.37-2.32 2.92v32.45c0 1.33-.1 2.74 1.91 2.82 2.18.08 2.36-1.24 2.35-2.91-.05-5.18-.03-10.34-.03-15.5zm18.18-4.46v-16.4c0-1.46-.24-2.64-2.11-2.63s-2.08 1.21-2.08 2.66v31.82c0 1.31-.1 2.73 1.86 2.86 2.24.15 2.32-1.31 2.32-2.9zm-20.47-49v-11.92c0-1.41-.15-2.66-2.05-2.67s-2 1.35-2 2.71v23.85c0 1.3-.19 2.78 1.79 2.9 2.23.15 2.27-1.35 2.26-2.94 0-3.98.01-7.95 0-11.92zm45.7-36c1.16 2.29-2.4 7.11 4 6.84 6-.25 2.88-4.63 3.14-7.06.32-3 1.48-7.81-3.46-7.8s-3.02 4.87-3.68 7.99zm-31.23 33v11.92c0 1.41.15 2.65 2.08 2.65s2-1.34 2-2.68v-23.85c0-1.36-.07-2.68-2-2.65s-2 1.29-2 2.69c-.08 3.92-.07 7.89-.08 11.87zm80-32.35c0-2.3.07-4 0-5.6a3.06 3.06 0 00-3.11-3.2c-2.68 0-4.2 1.89-3.69 4.19.79 3.57-3.15 8.92 2.47 10.53 6.02 1.68 3.97-3.68 4.35-5.97zm-11.94 51.07c-.49-2.4 1.17-6.22-2.83-6.34-4.35-.12-3.24 3.84-3.16 6.39.07 2-1.69 5.32 2.73 5.49 4.85.12 2.64-3.5 3.28-5.59zm-31.15-1c.23 2.93-1.11 6.75 3.76 5.77 4.31-.86 1.8-4.51 2.22-6.87.36-2.06.39-4.56-2.63-5a2.73 2.73 0 00-3.14 2.5 25 25 0 00-.23 3.54zm16.49-117.16c-1.12.65-3.68-.78-3.52 2s2.73 1.61 4.28 1.74c1.31.11 3.42.68 3.48-1.56.12-3.14-2.53-1.7-4.22-2.24zm38.36-66.9c.59 1.52-1.1 4.31 1.6 4.46 2.91.17 1.7-2.7 1.7-4.21s1.23-4.28-1.69-4.26c-2.48-.04-1.1 2.52-1.59 3.95zm-38.21 64.52c1.36-.31 3.74.63 3.76-1.25 0-2.48-2.51-1.36-3.91-1.38-1.21 0-3.55-1.07-3.47 1.29.1 2.1 2.38.89 3.64 1.28zm-26.4 7.18c1.23.15 1.61-.56 1.6-1.43 0-1.05.54-2.46-1.07-2.84-1-.24-1.5.54-1.51 1.43.02 1-.38 2.3 1 2.78zM730.46 393c3.21.54 4.19-1.09 4.58-4.06.89-6.83 2.21-7.47 8.14-4.46 1.55.79 3.18.58 4.8.66v4.48c.09 1.76-.35 3.94 2.21 4.34s3.41-1.37 3.93-3.5c.94-3.86 1.72-7.8 3-11.55 1.94-5.59 2-11.8 5.38-16.91q4.14 14.87 8.26 29.75a5.34 5.34 0 01-.31 4.35c-3.15 5.33-.87 11.09-1.29 16.63-.11 1.48 1.06 1.95 2.26 2.18 17.32 3.3 34.32 8.4 52 9.43a8.29 8.29 0 001.48-.17c6 2 12.14.76 18.23.81 1.61 0 2.45-1.45 3.57-2.44 6.76-6 5.37-14.36 6-21.85 1.77-20.78 2.71-41.63 4.36-62.43.35-4.38.06-9 1.92-13.2 3.68 6.43 4.8 13.74 6.91 20.69 7.14 23.39 14 46.86 21 70.3.61 2.08.75 4.46 3.92 4s1.92-3.1 2.12-4.76c.5-4.07.44-8.23 3.41-12 2.51 3.37 2.82 7 3.05 10.57 1 15.45 1.38 30.91 1.58 46.39.11 7.79 4 14.7 6.11 22 .87 3 1.46 5.45-1 8.26-2.19 2.56-2.09 6.23-2.09 9.54 0 8.66.15 17.33.25 26 0 1.31.56 2.86-.54 3.82-5.52 4.85-3.52 11.28-3.74 17.23-.12 3.33-.05 6.66-.07 10 0 4-.08 8 0 12 0 2.45-.68 3.55-3.51 3.29-16-1.45-32.07-2.76-48.11-4-9.58-.76-19-1.26-28.55 1.73-7.31 2.28-15.47 3-22.06-3.23 9-4.87 15.78-11.86 21.48-20.3 3.29-4.88 5.35-9.57 4.91-15.62-.51-7.13-3.1-11.52-9.68-14.07-10.68-4.14-21.4 2.7-21.6 13.92-.22 11.81-.24 23.63-.35 35.44a30.69 30.69 0 01-12-13.71c-3.11-7.1-8.68-10.05-15.35-9.08-7.78 1.12-12-3.46-16.82-7.6a75.86 75.86 0 00-7.46-5.82 13.47 13.47 0 00-10.79-2.19c-7 1.49-8 .44-8-6.94v-87.93c0-6.74 0-6.9-6.59-6.74-25.1.62-50.23.78-75.27 2.29-11.95.71-24-.48-35.86 1.57-1.51.26-3.55.69-4.57-1s.64-2.78 1.38-4c4.62-7.51 9.35-15 13.94-22.49a6.7 6.7 0 016.13-3.41q33.12-1.4 66.23-3c10-.5 19.88-1.29 29.83-1.94.16 0 .42.05.48 0 3.87-4.96 8.52-.83 12.76-1.27zm16 125.65a52.31 52.31 0 010-5.46c.38-3.44-1.6-3.75-4.25-3.61-2.32.12-4.76-.39-4.54 3.35s.09 7.6 0 11.4c0 1.95.48 3 2.73 3.13 4 .28 6.93-.21 6-5.35a19 19 0 01.1-3.43zm152.67 21.76c-.16-3.46.85-6.14-3.36-6.19-3.68 0-4.09 1.68-3.85 4.52.19 2.45-1 5.36 3.56 5.33 3.95 0 3.8-2.17 3.69-3.63zm-42.1-47.06c-.1-1 .5-2.89-2.15-3.05s-2.83 1.58-2.8 3.54c0 1.74 0 3.35 2.48 3.37s2.62-1.49 2.51-3.83zM793 487.56c.43 1.28-.89 3.48 1.22 3.73 2 .24 1.47-1.84 1.43-3-.06-1.36.74-3.55-1.24-3.77s-1.1 1.9-1.41 3.04zm19.74 6.82c2-2.43 1.31-4.81.84-7.12 0-.19-1-.47-1.2-.31-1.7 1.82-.77 4-.68 6.07-.02.25.3.5 1.01 1.36zm-43.51 44c-.49-1.33.93-3.77-1.56-3.86-2.13-.08-1.51 2.15-1.45 3.45s-1 3.81 1.5 3.89c2.16.06 1.1-2.21 1.48-3.49zm60-44c.44.91-.64 2.88 1.39 3 2.49.1 1.49-2.1 1.51-3.32s.84-3.52-1.42-3.44c-2.14.05-1.2 2.26-1.52 3.77zM863.72 550c0-1.45-.61-2.62-2.18-2.68a2.13 2.13 0 00-2.16 2.21 2.26 2.26 0 002.17 2.69c1.35.03 1.92-1.03 2.17-2.22zm23-54.09c.06 1.17 0 2.55 1.66 2.48 2-.08 1.55-1.76 1.6-3s-.2-2.4-1.86-2.19-1.25 1.59-1.38 2.67zM485.88 611.74a235.23 235.23 0 01-45.1 47c-7.37 5.74-13.33 13.45-19.3 20.79-7.91 9.72-16.81 18.44-25.54 27.36-4.66 4.76-9 9.78-13.61 14.61-3.09 3.25-4 7.34-4.19 11.48-.31 7.31-.5 14.64.86 21.92a8.39 8.39 0 004.38 6.28c4.65 2.59 5.42 6.36 3.48 11a63 63 0 01-7 12.68c-1.67 2.34-1.34 4.65-1 7.47 1.35 12.5 10.53 21.85 13 33.86.91 4.37.31 7.57-2 11.57-9.1 15.89-23.49 25-39.31 32.58-3.11 1.48-6.57 1.29-9.8 1.5-11.25.77-22.5 2.68-33.83.55-4.7-.88-9.27.42-13.72 1.93-13.41 4.53-27 8.61-39.85 14.64-9.76 4.57-20.2 5.28-30.62 6.22-9.44.85-18.93 1.09-28.33 2.2-8.35 1-14.86 6.54-22 10.36l-1.23.67h-10.34c12.3-8.93 24.45-18.06 36.82-26.88 9.59-6.83 21.13-10.6 32.37-14.16 13.4-4.24 26.74-8.25 37.54-17.82 3.89-3.44 8.94-3.74 13.66-4.11 15.51-1.22 30.53-4.93 45.61-8.34 5.33-1.2 9-5.54 13.4-8.49 1.7-1.15 1-2.24-.55-2.92a11.52 11.52 0 00-3.29-1.15c-8.31-1-12.77-6.36-15.46-13.57-1.61-4.32-4.81-5.57-8.91-6.79-16.13-4.8-30.85 0-45.54 5.78-2.41.95-2.45 2.84-2.51 4.89a172.65 172.65 0 001 21.92c.16 1.66.86 4.09-1.37 4.83-2 .66-2.54-1.71-3.65-2.84-6.14-6.22-10.5-13.72-15.11-21-4-6.36-10.36-9.48-17.8-7.93-3.93.82-7.27.2-10.21-2.43-7.71-6.89-17.59-7.46-27-9-9-1.52-13.74 4.74-17.4 11.42-3 5.52-5.12 11.56-7.49 17.42a16.3 16.3 0 00-.31 10.33c1.88 7.41-1.39 13.3-5.35 19-1.12 1.61-2.75 1.7-4.45 1.7-3.33 0-6.68-.2-10 .06-4.29.34-6.17-1.21-5.86-5.66.14-2.17.9-4.78-1.64-6.37a215.27 215.27 0 0132.91-57.8 11.55 11.55 0 017.32-4.33c11.26-2.43 22-.54 32.81 2.59 7.63 2.21 15.41 4.18 23.53 3.28a13.87 13.87 0 009.09 1.57c7.58-.93 15.2-1.65 22.81-2.33a14.38 14.38 0 006-2.15c10.81-6.27 21.41-12.85 31-21a28.93 28.93 0 0113.2-6.78c5.32-1.05 9.62-3.8 14-7.13 11.53-8.73 23.15-17.42 35.88-24.46 3.49-1.93 6.75-4.27 10.05-6.53a7.42 7.42 0 002.8-2.76c3.95-9.78 12.3-16 19.14-23.34s13.77-14.89 20.43-22.56a159 159 0 0127.56-24.51c9.51-6.82 16.9-15.46 23.52-24.9 4.58-6.54 11.45-10.4 17.28-15.69 1.48 2.15 0 3.2-.78 4.27zM700.18 696.47c-6 5.15-10.78 9.52-15.85 13.46-10.4 8.07-20.38 16.54-29.07 26.48a21.73 21.73 0 00-5.2 13.71c-.12 2.17 0 4.37-1.48 6.18-5.89 7.15-9.28 15.76-13.88 23.66-1.39 2.39-2.84 3.15-5.64 2.63-5.71-1.07-11.51-1.7-17.28-2.5-6.17-.85-9 1-10.51 7.39a49.07 49.07 0 01-5.6 13.8c-8.78 15.11-20.14 28.6-28 44.32-.29.6-.72 1.13-1 1.72-4.75 9.2-2.93 12.17 7.35 13 7.28.57 14.5 1.71 21.82 2.18 9.33.59 19.18 10 20.83 18.44.74 3.8.09 6.67-3.53 8.94-4.79 3-9.27 6.49-13.82 9.85-3 2.24-5.6 4.89-6.58 8.68H483.33c-.27-9.46 4.46-17.87 7.33-26.65.79-2.43 3.45-4.5 5.67-6.18 10.85-8.22 17.79-19.54 24.83-30.79 1.07-1.71 1.86-3.68 3.64-4.68 14.27-8 23.67-20.64 32.56-33.84 3.55-5.26 7.26-10.33 9.41-16.39 3.2-9 11.06-13.89 17.89-19.66q3.81-3.21 7.77-6.25c1.57-1.2 2.74-2.69 2.47-4.63-1.18-8.37 4.06-14 9-19.21 9.4-10 17.18-21.2 25-32.37 3.58-5.12 7.83-7.7 14.15-7.58 16.83.31 33.48-2.09 50.19-3.68 1.76-.18 3.56-.03 6.94-.03zM666.64 0c.2-2.15.35-4.31.61-6.45.43-3.42-.13-6.29-4.61-7.31 2.57-2 5.17-3.08 5.81-7.44.81 4.07 2.94 5.39 5.14 6.71-4.73 3.29-5.59 7.41-3.4 14.89 9.75 32.68 19.33 65.42 29.44 98 2.23 7.17 3 14.71 6 21.64.83 1.93.84 4.35 3.27 5.3.29.11.74.44.72.61-1 7.25 2 13.29 4.77 19.72.91 2.07.5 6 1.62 8.83 1.28 3.26 1 7.44 4.89 9.38a1.22 1.22 0 01.66 1.64c-2.41 6.41 1 11.36 4.07 16.42.32.52.83 1.33.65 1.67-2.37 4.43.32 8.23 1.91 11.78 3.69 8.23 5.15 17.17 7.87 25.64 2.1 6.5 4.73 13.24 5.81 20.21-1.13 5.05 1.82 9.25 2.87 13.85.39 1.7 2.11 3.74.41 5.09s-3.38-.7-4.75-1.69c-16.26-11.76-35.17-17.35-54.11-22.31-9.34-2.45-19.41-2.4-29.18-2.86-11.76-.56-12.07-.31-11-11.63 1.69-18.68 3.84-37.31 5.69-56 1.82-18.33 3.42-36.69 5.26-55 2.16-21.64 4.51-43.26 6.72-64.89 1.42-13.87 2.73-27.75 4.09-41.63A4.91 4.91 0 00666.64 0zM630.84 591.33a64.29 64.29 0 001.67 29.14 22 22 0 01.15 9.92c-1.2 7.21-3 14.37-3.62 21.63-.84 9.54-8.07 14.71-13.5 20.91-8.74 10-16.32 20.38-21.53 32.73-4.38 10.4-10.18 20.22-15.5 30.21-3 5.55-7.64 9.84-12.43 13.56-11.93 9.28-18 21.28-19.11 36.13-.23 3-1.36 5.85-1.7 8.81a36.59 36.59 0 01-9.69 21.29c-11.94 13.18-22.36 27.67-34.36 40.83a29.16 29.16 0 01-10.1 7.13c-4.88 2.15-9.65 4.53-14.49 6.75a13.74 13.74 0 00-6.3 6.15c-6 10.65-12.17 21.24-18.23 31.88h-27.59a150.58 150.58 0 0110.7-18.08c7.14-10.24 14.11-20.65 20.47-31.39a34 34 0 0118.91-15.3 17.49 17.49 0 0010.48-9.19c8.11-15.84 18.27-30.57 25.21-47.07 2-4.69 6.37-7.84 10.67-10.25 8.53-4.78 13-12.26 16.61-20.92 5.86-14 11.17-28.41 19.05-41.21 8-13.06 10.73-27.38 14.76-41.5a66.56 66.56 0 014.84-12c11.13-22 22.31-44 30.26-67.39a18.25 18.25 0 015-7.9 33.86 33.86 0 007.6-9.21c2.26-4.37 6.22-6.26 10.51-7.84 3.43-1.27 4.68-.24 4.09 3.4-1 6.27-1.81 12.54-2.83 18.78zM1630 634.25a212.26 212.26 0 01-11.86 38.54c-4 9.86-8.24 19.7-10.28 30.21-1.2 6.18-1.34 12.58-2.61 18.74-2.83 13.71-8.84 26.52-11.76 40.23-1 4.56-2.29 9-3.36 13.57-.77 3.3-1.84 6.71-4.17 9-9.26 9-12.15 21-15 32.65-4.32 18.06-12.88 33.9-23.55 48.68A133.31 133.31 0 001527 908.4h-25.43q19.17-39 35-79.56c7.19-18.28 14.8-36.39 21.9-54.71 2.64-6.79 7.46-11.93 12.31-16.73 9.58-9.49 14.58-21.31 19.21-33.42a282.05 282.05 0 0112.88-29.22c9.78-18.81 17.41-38.52 25.47-58.06a17 17 0 011.57-2.52zM583.61 339.24c5.35 13.85 2.92 26.81 2.1 39.68-.66 10.27-1.91 20.51-2.64 30.78-.84 11.76-1.35 23.55-2.1 35.33-.21 3.25 1 5.62 3.22 8 6.49 6.9 12.75 14 19.09 21.07a2.29 2.29 0 01.72 2.63c-9.06-2.7-18.46-3.17-27.86-3.78-17-1.11-33.9-1.44-50.81.71-3.13.4-6.26.87-9.38 1.34-2.21.33-3.44-.07-3.19-2.84 1.38-15.22 2.63-30.45 3.9-45.68.81-9.77 1.55-19.54 2.33-29.31 1-12.92 1.68-25.88 3.26-38.73.77-6.24 5.08-11.39 8.34-18.3 2.81 9.41 3.95 17.58 3.15 26.07-1 10.91-1.89 21.84-2.73 32.77-1.31 17.22-2.54 34.45-3.79 51.68-.15 2.1-.7 4.25.5 6.61 8.55-6 14-13.07 14.45-24.3.87-20.39 3.53-40.71 4.54-61.11.54-10.77 2.77-20.66 8.4-29.8.32-.52.74-1 1.63-2.18 1.54 8.7 4 16.32 2.65 24.73-1.38 8.66-1.59 17.52-2.2 26.3Q556 407.56 555 424.22c-.09 1.6-.46 3.32.84 5.19 7.23-7.11 8.09 3 12.79 4.87.79-7.3 1.7-14.3 2.26-21.33 1.45-18.22 2.53-36.47 4.23-54.66.67-6.86 5.31-12.29 8.49-19.05zM770 733.23c-7.73 8.75-16.63 16.27-25.55 23.71-4.38 3.66-6.74 8.11-8.4 13.19-1.24 3.79-2.24 7.66-3.14 11.55-1.95 8.39-6 15.52-11 22.63-8.08 11.55-12.49 24.65-8.78 39.12a15.24 15.24 0 01-1.4 11.51c-2.63 5-5 10.15-7.25 15.33a7.7 7.7 0 01-6.88 4.89c-6.11.68-12.22 1.38-18.3 2.31-11.55 1.76-20.22-3.41-27.83-11.27-1.31-1.35-1.23-2.89-.89-4.64a248.6 248.6 0 003.7-25.13c.92-10.32 7.35-18.38 14-25.89 2.81-3.17 7.46-2.45 11.16-3.85a33.35 33.35 0 018.68-2.2c7.6-.66 11.81-5.39 14.93-11.62 4.77-9.53 9.48-19.09 9.82-30.06a6.09 6.09 0 013.77-5.92q25.42-11.62 50.84-23.25a10.13 10.13 0 012.44-.44zM1404.14 833.16l-16-50c-1.2-3.73-1.89-7.66-4.06-11.19-1.43.58-1.71 1.74-2.1 2.79-2.68 7.36-5.08 14.83-8.1 22-5.77 13.75-8.28 28.85-17 41.36a3.48 3.48 0 00-.39 2.87c1.09 5.45.23 11 .55 16.45.19 3.42-1.25 4.72-4.69 4.74-18.31.09-36.6 1.74-54.91.87-5.68-.27-9.3 2-12.77 6.08-11.21 13.13-22.58 26.12-33.85 39.19h16.5q10.41-10.89 20.8-21.8a10.94 10.94 0 016.83-3.67c11.38-1.47 22.72-3.18 34.09-4.65 24.07-3.12 48.15-6.13 72.22-9.24 2.16-.28 4.7-.76 4.61-3.61-.33-10.69 1.68-21.58-1.73-32.19zm-44.25 23.28c-3.46.08-1.81-3.6-1.75-5.48.06-2.11-1.74-6 1.57-6.12 3.72-.11 1 3.95 2.15 5.92-1.02 1.91 1.39 5.6-1.97 5.68zm15-8.05v5.95c0 2.22-1.66 2.06-3.14 2.09s-3.1.11-3.15-2.07c0-2 0-4-.07-5.92 0-2.24-.17-4.16 3.19-4.14s3.28 1.79 3.16 4.09zm14 2.2v3.47c.22 2.53-1.46 2.56-3.2 2.52s-3.5.29-3.4-2.34c.06-1.82.06-3.64 0-5.46-.12-2.52-.09-4.47 3.49-4.41 3.41 0 3.19 2 3.13 4.23v.73c-.07.42-.06.83-.06 1.26zm12.75 4c0 1.53-.49 2.46-2.28 2.51-2.11.06-2.48-1.1-2.43-2.8v-3.49-3.48c-.05-1.73.83-2.29 2.45-2.26 1.79 0 2.25 1 2.24 2.56-.03 2.37-.02 4.65-.02 6.97zM854.16 626.37c-7.65 1.88-14.67 5.25-21.93 7.91-2.31.85-4.05 1.64-4.29 4.65-.73 9.21-4.45 12.38-13.61 11.06-3.8-.54-6.4.19-8.7 3-1.21 1.49-2.85 2.5-4.84 1.83-9.73-3.27-19.72-1.54-29.62-1.59-3.44 0-6.24-.63-7.74-4.11-.88-2.06-2.62-2.62-4.77-3-8.11-1.32-16.74.12-24.25-4.52a5.6 5.6 0 00-2.43-.37c-2.35-.17-4.91 1.77-7-.78-2.77-3.37-5.16-6.92-6.09-11.29-.41-1.93.2-2.88 2.16-3h130.27c.95.06 1.9.16 2.84.21zM1487.1 658.56c4.2 17.23 2.44 33.17 1.84 49.08-.12 3.09-1.93 5.28-4.09 7.17-4.83 4.21-7.79 9-8.21 15.81s-5.59 12-8.87 17.69c-14.17 24.84-24.54 50.91-26.93 79.71 0 .27-.33.51-1 1.55-3.69-9.35-7.23-18.18-10.59-27.08a5.29 5.29 0 01.33-3.88c5.54-10.23 5.77-21.78 8.29-32.76 1.78-7.78 3.39-15.62 5.45-23.33 1.74-6.5 8.12-9 12.58-13 6.89-6.24 14.35-11.73 19-20.24 3-5.61 3.75-11.68 5.14-17.62 2.37-10.55 4.5-21.13 7.06-33.1zM320 491.21c.94-29.81 5.57-59.27 8.4-88.89.66-7 2.14-13.88 2.18-20.83.07-12.54 6.21-22.85 11.15-34.38a50.65 50.65 0 014.18 12.12c-1.87 6.46-.83 13.17-1.74 19.76-2 14.64-3.37 29.37-4.82 44.08-1.24 12.72-2.23 25.48-3.35 38.22q-1.07 12.16-2.17 24.32c-.35 3.86-1.92 6.2-6.35 5.67a64.31 64.31 0 00-7.48-.07zM483.49 467.91c3.14-3.51 1.38-8 2.07-11.94 1.12-6.51 1-13.23 1.4-19.86.07-1.63.15-3.26.22-4.9 1.79-9 1.84-18.11 2.7-27.17 1.37-14.37 1.83-28.83 3.34-43.18.72-6.83 5.48-12.31 8.69-19.53 2.4 6.39 3.74 12.08 3.56 17.62-.4 12.59-1.73 25.16-2.66 37.73-.95 12.74-1.93 25.48-2.79 38.23C498.94 451 498 467 497 483.11c-.16 2.62-1.36 4-4 4h-6c-3.08.06-4.21-1.36-3.61-4.38a41.57 41.57 0 00.15-14.88zM447.38 344.6c1.46 7.47 4.21 14.48 3.11 22.37-1.38 9.85-1.74 19.84-2.48 29.77-1.29 17.39-2.77 34.76-3.74 52.16-.66 11.78-1.55 23.54-2.11 35.31-.28 6.05-4 4.82-7.48 5.05-3.81.26-6.1-.7-5.74-5.17 1.21-15.06 2.24-30.13 3.42-45.19.81-10.26 1.81-20.5 2.62-30.76 1.12-14.07 2.06-28.15 3.22-42.21.66-8.05 5.42-14.41 9.18-21.33zM418.82 425.32c-1.89 6.81-.72 13.84-1.53 20.78-1.4 11.84-1.65 23.83-2.22 35.76-.39 8-4 10.58-11.73 8.28-2.41-.71-2.46-2.47-2.3-4.32 1.55-17.68 3.21-35.35 4.71-53 1.18-13.89 2.18-27.79 3.25-41.69.72-9.26.91-18.6 2.28-27.77 1-6.58 5.52-11.94 8.69-19.23a78.67 78.67 0 012.77 29c-1.08 13.06-2.7 26.08-2.73 39.22a2.91 2.91 0 01-.15.92c-1.51 2.92-.65 6-.81 9.07-.05.98-.15 1.98-.23 2.98zM459 433.19c1.3-1.77 1-3.82 1-5.8.34-17 2.68-33.78 3.69-50.69.57-9.75 1.38-19.24 6.53-27.82.92-1.54 1.45-3.37 3.81-4.77 1.56 7.46 3.55 14.46 2.77 22-1.1 10.74-1.94 21.5-2.75 32.27q-2 26.83-3.87 53.68c-.75 10.6-1.57 21.21-2.09 31.83-.31 6.35-4.93 3.85-8.08 4.29-3.57.5-5.34-1.07-5-4.82.38-4.3.66-8.61 1-12.91 1.2-4.65.53-9.42 1-14.12q1-9 2-18.08c-.07-1.68-.01-3.37-.01-5.06zM388.09 483c-.58 6.62-6 9.7-12.2 7-2.23-1-2-2.91-1.9-4.67q1-14.14 2.25-28.28c.86-9.91 1.87-19.8 2.73-29.72 1.31-15.2 2.55-30.4 3.82-45.6.39-4.63.83-9.26 1.16-13.89.47-6.75 4.07-15.71 9.22-22.19 2.05 8.9 3.33 17.3 2.53 26.14-1.13 12.54-2.92 25.05-2.41 37.7l-.11-.34c-2.21 3.51-.75 7.39-1.12 11.09l.22-.1c-2.26 5.22-1.25 10.58-.72 15.92v2.1c-2.85 5.34-1.72 11.3-2.32 16.94-.69 6.59-.15 13.31-.14 20-2.51-.11-4.6.59-5 3.39s1.68 3.89 3.99 4.51zM365.06 445.16q-.49 7.51-1 15-.4 7.32-.82 14.63c-.27 4.31-.16 8.64-1.12 12.92-1.36 6.08-6.1 2.89-9.37 3.42s-4-1.79-3.76-4.46c.76-10.28 1.52-20.55 2.37-30.81 1.17-14.07 2.44-28.13 3.63-42.2 1.4-16.55 2.41-33.15 4.32-49.64.7-6 5-11.1 8-17.53 4.69 11.23 3.61 21.85 2.69 32.51s-1.85 21.18-2.77 31.77c-2 6.23-1.78 12.74-2.15 19.15-.29 5.02-1.51 10.15-.02 15.24zM1508.93 556.46c2.06.33 2.64-1.67 4-2.52-.29 11.79-5.07 21.19-15 27.66a11.17 11.17 0 00-5.1 7.59c-1.35 6.52-3 13-4.35 19.5-.55 2.58-1.49 4.72-4.07 5.87-6.93 3.09-10.25 9.25-12.8 15.81a82.13 82.13 0 00-4.31 14.34c-1.68 8.87-6.22 15.94-12.42 22.19-3.28 3.31-5.93 7.54-9.53 10.15-10.84 7.88-11.75 19.8-14.26 31.2a77.34 77.34 0 01-4 14.06c0-7 .68-14-.15-20.89-1.44-12 2.12-21.13 11.74-28.6 5.06-3.92 9-9.31 13.36-14.11 3.1-3.43 3-8 4-12.16 3.63-14.92 7-30 21.63-38.77 2.39-1.44 2.9-4 3.33-6.45 1.38-7.87 2.78-15.73 3.89-23.64.46-3.32 1.4-4.89 5.07-3.81 4.76 1.41 8.62-.33 11.17-4.41 2.58-4.3 7.3-7.38 7.8-13.01zM1039 753.23c-7.46 2.45-8.73 1.42-9.08-6.09-1.29-27.86-2-55.74-3.26-83.6-.5-11.25.09-22.56-1.49-33.81-1.09-7.8 3.28-12.56 10-12.5 5.63 0 9.17 3.54 9.86 9.15a202.58 202.58 0 011 24.87c-3.54-3.34-6.29-7.72-11.87-9.22v3.59c1.06 26.61 2 53.24 3.29 79.84.48 9.25-.23 18.59 1.55 27.77z"/>
  <path class="cls-3" d="M1017.8 647.78c.82 34.53 1.63 69.06 2.46 104.42-4.55-2.79-8.61-4.6-11.68-8-.68-28.57-1.4-57.14-2-85.72-.17-8.17 0-16.36 0-24.81 5.13 3.85 6.72 10.16 11.22 14.11z"/>
  <path class="cls-2" d="M1017.8 647.78c-4.5-3.95-6.09-10.26-11.25-14.06 0 8.45-.15 16.64 0 24.81.61 28.58 1.33 57.15 2 85.72-6.76-5.87-10-12.74-9.79-22.23.6-31.29-1.5-62.59-.82-93.9.15-6.87 3.75-11 9.64-10.88 4.78 0 8.88 3.36 9.23 8.13.58 7.45.69 14.94.99 22.41zM980.85 730.3c-6.81-3.79-10.11-8.66-10.17-17.38-.17-25.09-1.66-50.17-1.78-75.27 0-2.81-.8-5.61-.81-8.42a10.57 10.57 0 0111-11c6.08.09 9.74 4 9.94 10.68.16 5.31.4 10.61.6 15.91-4.55-3.31-5-10.46-11.48-12.74v6.07q1.33 46.08 2.7 92.15z"/>
  <path class="cls-3" d="M792.51 566.29c.11-11.81.13-23.63.35-35.44.2-11.22 10.92-18.06 21.6-13.92 6.58 2.55 9.17 6.94 9.68 14.07.44 6-1.62 10.74-4.91 15.62-5.7 8.44-12.52 15.43-21.48 20.3-1.75.26-3.65.88-5.24-.63zM1039 753.23c-1.8-9.18-1.09-18.52-1.56-27.77-1.33-26.6-2.23-53.23-3.29-79.84-.05-1.11 0-2.22 0-3.59 5.58 1.5 8.33 5.88 11.87 9.22 1.43 6.54.93 13.22 1.32 19.83 1 16.88 1.65 33.79 2.65 50.68a24.63 24.63 0 01-2.57 12.91c-3 6.08-5.62 12.33-8.42 18.56zM980.85 730.3l-2.7-92.15v-6.07c6.48 2.28 6.93 9.43 11.48 12.74 1 26.57 2.45 53.15 2.56 79.72.03 9.26-.53 10.07-11.34 5.76zM960 637.3a8.65 8.65 0 01.89 4.34q1.14 36.47 2.32 72.93c.16 5.18-2.48 6.78-7.06 4-2.47-1.47-5.74-2-7-5.2 1.12-16 .51-32 .73-47.95.16-12.07 0-24.14 0-37.39z"/>
  <path class="cls-2" d="M1062 704.48l-5.31 9.85a1.84 1.84 0 01-1.6-2.11c.27-9.49-1-18.9-1.25-28.38-.47-19.62-1.08-39.23-.82-58.86.07-5.51 3.12-8.56 8.17-8.73a9.21 9.21 0 019.71 8.15c.44 3.46.85 6.93 1 10.41.34 6.64.51 13.28.75 19.92-3.82-3.79-7-8.37-12.79-11 .74 20.62 1.44 40.69 2.14 60.75zM1026.37 796.6c-9.41-14.07-19.42-27.78-28-42.33-5.15-8.72-11.08-12.28-21.18-11.24-11.06 1.13-22.21-1.47-33.37-.82-3 .17-4.34-1.47-5.45-4.05-6.48-15-13.33-29.77-19.57-44.83-1.83-4.41-4.3-6.74-8.89-7.42a37.14 37.14 0 01-9.65-2.89c6.19.84 12.42-.59 18.54.74 2.05.45 2.49 3 3.3 4.78 6.41 14.08 12.85 28.15 19.08 42.31 1.3 2.95 2.9 4.18 6.23 4.52 14.08 1.46 28.24.56 42.33 1.75 3.11.27 5.21 1 6.84 3.83 9.9 17.52 20 34.95 30 52.43a15.51 15.51 0 011 2.65z"/>
  <path class="cls-2" d="M1079.1 908.4h-2.88c-2.37-3.33-4.74-6.67-7.08-10-15.15-21.68-30.39-43.29-45.28-65.15-3.62-5.33-6.08-11.45-9-17.27q-12.13-24.63-24.17-49.31c-.62-1.29-1.55-2.52-.34-4.58q44.41 73.13 88.75 146.31z"/>
  <path class="cls-3" d="M669.47 462.3c0-4.16.32-8.35-.08-12.48-.46-4.76 2-7 5.89-8.58a14.57 14.57 0 0111.65.25c3.45 1.52 5.4 3.75 5.23 8-.35 9-.22 18 0 27 .06 3.06-.86 4.11-3.94 4-5-.23-10-.19-15 0-2.79.09-3.88-.8-3.77-3.67.16-4.82.03-9.69.02-14.52zM635 466.43c0 5-.07 10 0 15 0 2.12-.69 3-2.87 2.94-5.49-.09-11-.11-16.47 0-2.4.05-3.19-.85-3.17-3.19.08-10 .06-20 0-29.95a4.77 4.77 0 012.26-4.16 14.56 14.56 0 0113.72-2.16c4.31 1.42 7.15 3.78 6.59 9.06-.45 4.1-.06 8.3-.06 12.46z"/>
  <path class="cls-2" d="M493 180.34c2.42.83 1.7 2.92 1.75 4.61.6 22.76 3.5 45.34 5.34 68 .06.66 0 1.64.36 1.9 7.61 5.25 3.05 12.89 3.9 19.46l-12-.09c-2.81 0-5.61.26-7.88-2.12-1.71-1.8-3.69-.09-6.31.3 1.84-5.54 3.52-10.67 5.26-15.78.63-1.84 2.18-2.4 4-2.39 2.9 0 3.51-1.76 3.59-4.25.76-23.21 2.13-46.41 1.99-69.64zM960 637.3l-10-9.25c0 13.25.13 25.32 0 37.39-.22 16 .39 32-.73 47.95-4.42-4.67-6.13-10-6.41-16.63-1-22.63-.66-45.26-.76-67.88 0-6.69 3.1-9.79 9.28-9.67 5.33.11 8.53 2.89 8.6 8.25-.04 3.28 1.57 6.54.02 9.84z"/>
  <path class="cls-3" d="M1378.22 502.48c-.69-6.31-.46-13.49 4.89-19.58 4-4.55 6.81-4.85 11.32-.71 4.23 3.88 7 8.34 6.58 14.43-.28 4.48.06 9 .14 13.48 0 2.18-.93 3.28-3.18 3.58-5.44.74-10.87 1.61-16.28 2.55-2.66.47-3.65-.41-3.51-3.1.16-3.13.04-6.34.04-10.65z"/>
  <path class="cls-2" d="M846.93 713c.23 2.22-1 2.24-2.18 1.88-2.52-.78-5.5-1-7.32-2.94-5.89-6.42-14-10.81-17.54-19.39-3.4-8.37-9.33-14.8-15.84-20.82-.93-.86-2.44-1.7-2-3.18s2.18-1.19 3.45-1.38c2.13-.32 4.25-.79 6.4-.92 5.25-.31 9.17 1.37 11.52 6.67 5.68 12.8 13.85 24.19 21.09 36.1z"/>
  <path class="cls-3" d="M1062 704.48c-.7-20.06-1.4-40.13-2.11-60.73 5.83 2.61 9 7.19 12.79 11 .46 10.14.7 20.3 1.49 30.42a12.78 12.78 0 01-3.87 10.76c-2.8 2.81-5.54 5.69-8.3 8.55z"/>
  <path class="cls-2" d="M430.53 800.21a15.06 15.06 0 01-2.87 1.85c-8.3 3-10.82 8.9-9.8 17.47.83 7.05.27 14.26.61 21.39.12 2.55-.89 3.15-3.08 3.3-6.28.43-8.6-1.44-8.29-7.75.44-8.77 1.07-17.54 2.08-26.26.91-7.83 4.71-10.82 12.72-11h8.41zM916 622.16c1.51-3.39 4-5.45 7.83-4.65s6.79 3.33 6.85 7c.28 18.67.13 37.35.13 56.92-4.84-7.22-5.81-14.94-8.85-21.83 1.46-8.2.8-16.5 1.3-24.75.33-5.8-1.57-10.33-7.26-12.69z"/>
  <path class="cls-3" d="M365.06 445.16c-1.49-5.09-.27-10.22 0-15.29.37-6.41.14-12.92 2.15-19.15 8.86.28 8.67.27 8.32 9.39-.25 6.29 0 12.61.19 18.91s-.07 6.56-6.23 6.17c-1.49-.09-2.95-.02-4.43-.03zM459 433.19c0 1.69 0 3.38-.05 5.07-11.57 1.1-11.63 1.1-11.05-10.52.32-6.48 1-12.93 1.3-19.41.26-5.55 4.54-3 7.09-3.53 3.24-.62 2.65 2.08 2.54 4-.48 8.12-.83 16.26.17 24.39zM419.86 413.25a2.91 2.91 0 00.15-.92c2.13-1.18-.52-4.72 3-5.5 6.17-1.36 7.45-.37 7.31 5.87-.18 8.14-.24 16.3.08 24.43.14 3.48-1 4.77-4.17 4-2.66-.62-7.33 2-7.12-3.92.14-4 .43-8-.31-11.92.08-1 .15-2 .23-3 1.97-2.84 1.15-5.96.83-9.04zM391.54 438.2v-2.1l.72-15.92-.22.1c1.49-3.59 1.19-7.35 1.12-11.09l.11.34a4.12 4.12 0 01.9-.43c8.66-1.69 9.16-1.35 8.53 7.23-.53 7.3-.05 14.57.21 21.84.12 3.14-.58 4.73-4 4.31a7.91 7.91 0 00-2.47.17c-3.71.83-5.64-.32-4.9-4.45zM513.89 417.39c0 4.32-.22 8.65.07 12.95.21 3-.59 4-3.72 4.12-7.64.22-7.73.39-7.37-7.32.33-7.31 1.21-14.6 1.27-21.9.05-5.69 3.83-4.64 7.13-4.77 4.2-.17 2.53 3 2.61 5 .16 4 0 8 0 12zM351.06 428.5c0 4.16-.23 8.34.07 12.48.24 3.45-.85 4.55-4.37 4.6-6.85.1-7 .32-6.7-6.62.36-8 1.22-15.93 1.62-23.9.27-5.28 4.27-2.9 6.68-3.4 3.13-.65 2.77 1.84 2.76 3.86v13zM487.18 431.21c-.07 1.64-.15 3.27-.22 4.9-11.48.38-11.55.38-10.86-11.3.37-6.28 1.17-12.54 1.48-18.83.27-5.47 4.32-3.25 7-3.62 3.41-.48 2.53 2.22 2.49 4-.21 8.3-.5 16.58.11 24.85zM916 622.16c5.72 2.36 7.62 6.89 7.26 12.72-.5 8.25.16 16.55-1.3 24.75-7.73-.49-7.94-.5-7.68-8.21.3-9.76-.88-19.62 1.72-29.26z"/>
  <path class="cls-2" d="M372.86 254.13c.59-1.1.82-2.87 2.37-2.63.69.1 1.22 1.72 1.67 2.72q4.8 10.82 9.53 21.67c.82 1.89 2.32 3.88-.21 5.67-3.29-3.15-7.58-3-11.63-3.29-6.49-.43-6.5-.28-4.86-6.84 1-4 2.09-8 3-12.06.35-1.7 1.42-3.46.13-5.24z"/>
  <path class="cls-3" d="M659.77 511.52v-3.49c.11-7.28-.91-6.12 6.27-6.55 4.27-.25 6.17.83 5.56 5.42a66.26 66.26 0 00-.06 8.46c0 6.48 0 6.48-6.35 6.46-5.42-.01-5.42-.01-5.42-10.3z"/>
  <path class="cls-2" d="M662.63 578.2c3.34-.45 7.64-.89 11.89-1.64 3.26-.58 5.88.56 8.33 2.41a2.08 2.08 0 01.59 1.72c-.16.75-1 .75-1.64.54-6.06-2-11.8.62-17.67 1.23-1 .1-2 .46-2.94.59-9.21 1.24-10.29.22-9.07-8.75.88-6.42 1.84-12.83 2.82-19.23.2-1.32-.25-3.5 2.2-2.93 1.81.42 1.86 2.15 1.63 3.71q-1.21 8.13-2.48 16.26c-.8 5.22.06 6.2 6.34 6.09zM316.31 532.26q-1.2-2-2.38-4a29.8 29.8 0 0111.72-1.89c21.26.19 42.5-.84 63.75-1.16a3.39 3.39 0 012.48.69z"/>
  <path class="cls-3" d="M699.19 510.59a52 52 0 000 6.49c.52 4-1.14 4.89-5 5-4.6.19-5.72-1.4-5.39-5.66a122.89 122.89 0 000-14.49c-.22-4.73 3.16-3.19 5.47-3.34s5.23-.67 4.86 3.47c-.13 2.85.06 5.7.06 8.53z"/>
  <path class="cls-2" d="M994 600.52c-.92 2.4 2.39 7.36-4 7.71-6.12.33-6.83-.22-6.87-6.46 0-2.16-.06-4.32 0-6.47.15-3.48 1.43-6.58 5.28-6.64 4.16-.07 5.42 3.17 5.59 6.84v5.02zM929 598c0 8-1.35 9.39-7.65 8.09-1.19-.25-2.56-.54-2.75-1.8-.76-5.09-1.43-10.26.65-15.19a4.38 4.38 0 014.52-2.56 4.77 4.77 0 014.19 3.1c1.14 2.72 1.04 5.56 1.04 8.36zM1034.94 600.51a59.22 59.22 0 01.33-6 5.34 5.34 0 014.39-4.86c2.82-.51 4.36 1.57 5.28 3.7 1.91 4.44 1.51 9.28.63 13.75-.69 3.47-4.45 1.79-6.9 2-2.13.19-3.53-.83-3.58-3.15v-5.49zM999.81 599.43a63.27 63.27 0 01.74-6.9 5 5 0 014.14-3.87c2.37-.45 3.83 1.13 4.73 2.93 2.34 4.67 2.13 9.83 1.1 14.63-.73 3.4-4.49 1.7-6.95 1.92-2.16.2-3.46-.93-3.49-3.21v-5.48zM870.1 594.84a38.5 38.5 0 010-5.48c.43-2.94 2.2-4.94 5.29-5 3.39 0 4.5 2.31 4.56 5.32a49.32 49.32 0 00.73 9.92c.52 2.34.07 4.58-3 4.45-2.88-.11-6.79 1.53-7.57-3.27a38.34 38.34 0 01-.01-5.94zM945 598.41c0 8.45-1 9.71-6.6 8.69-1.18-.22-2.68-.47-2.8-1.67-.47-4.85-2.4-9.68-.77-14.59a4.69 4.69 0 014.87-3.5c2.51.1 3.81 1.75 4.66 3.86 1.02 2.54.44 5.23.64 7.21zM912.1 597.68a14.53 14.53 0 000 2c.4 2.81 1.37 5.67-3.42 5.64-4.07 0-7.35-.15-6.74-5.66.33-2.94 0-5.95.16-8.91s1.92-4.78 4.67-4.89c3-.12 4.9 1.83 5.13 4.91.17 2.3 0 4.62 0 6.93zM1028 600.64c0 1.32-.08 2.65 0 4 .25 3.44-1.35 4.69-4.71 4.65s-5.58-.48-5.35-4.52c.17-3.13 0-6.28.07-9.41s1.61-5.72 4.9-5.77 4.81 2.48 5 5.64c.12 1.81 0 3.63 0 5.45zM1079 601.72c0 1.32-.08 2.65 0 4 .26 3.51-1.47 4.6-4.77 4.58s-5.5-.64-5.27-4.61c.18-3.12-.06-6.27.07-9.41s1.65-5.7 5-5.69 4.77 2.58 5 5.72c.1 1.81 0 3.64 0 5.45zM977 598.53c0 1.32-.09 2.65 0 4 .31 3.76-1.57 4.81-5.06 4.81s-5.24-1.17-5-4.89c.19-3-.06-5.94.15-8.9.22-3.14 1.63-5.42 5.25-5.23 3.3.18 4.55 2.26 4.61 5.3v4.95zM961 598.77c0 1.32-.08 2.65 0 4 .26 3.54-1.54 4.54-4.8 4.55s-5.47-.7-5.25-4.63c.18-3.13 0-6.27.07-9.41.07-2.85 1.4-4.71 4.42-5 3.28-.27 4.94 1.57 5.33 4.57a44.93 44.93 0 01.05 5.92zM896 595.29c0 1.34-.09 2.68 0 4 .31 3.64-1.25 5.06-4.94 5-3.49 0-5.38-1-5.13-4.84.19-2.83-.05-5.67.11-8.5.17-3.07 1.18-5.67 4.91-5.67 4 0 5 2.56 5 6v4zM1062 600.49c0 1.17-.09 2.34 0 3.5.36 3.81-1.17 5.34-5.14 5.35-4.19 0-5.16-2-4.93-5.57.17-2.82-.08-5.68.17-8.49s1.64-5.1 5-5 4.7 2.1 4.78 5.2v5z"/>
  <path class="cls-3" d="M511.13 460.06c-1 2.18 2.15 6.59-3.83 6.93-7.44.43-7.64.69-6.92-6.78.25-2.59-1.93-6.71 3.11-7.5 7.81-1.23 7.85-1.2 7.64 7.35zM456.93 456.34c-.44 4.7.23 9.47-1 14.12a4.17 4.17 0 01-.5 0c-3.22-.46-7.9 2.21-9.3-.4-1.57-2.93-.2-7.41-.17-11.22 0-1.72.92-2.35 2.48-2.37zM429 465c-1.3 2.06 2.32 6.69-3.3 6.94-2.54.12-6.55 1.65-7.35-.62-1.34-3.76-1.38-8.66.45-12.14 1.2-2.27 5.72-2 8.76-1.56 2.55.41 1.17 3 1.41 4.58a19.47 19.47 0 01.03 2.8zM483.5 467.92c-14 .76-10.82 3.31-10.36-10.92.16-5.22 5.18-2.16 7.93-2.91s2.8 1.37 2.72 3.35c-.13 3.49-.2 7-.3 10.48z"/>
  <path class="cls-2" d="M427.12 498.65c-35.34 2.42-70.73 1.45-106.1 1.14 35.36-.71 70.72-2.54 106.1-1.14z"/>
  <path class="cls-3" d="M399.94 465.94c-1.34 2 2.59 6.71-3.42 7.22-6.53.56-6.63.6-6.41-6 0-1.17.07-2.33.14-3.48.22-3.95 5.17-6.85 8.7-5.1 1.12.52 1.12.52.99 7.36zM346.85 468c-.22 7.87-.36 8-7 7.84-.5 0-1.22.19-1.46-.06-2.9-3.13-.64-6.85-1-10.28-.17-1.63-.53-3.6 2.27-4.16 6.34-1.34 7.39-.46 7.19 6.66zM1363.78 558.26v8.44c0 2 0 3.52-2.77 3.52-2.48 0-3.09-1-3.06-3.26.1-6 .07-11.9 0-17.85 0-2 .51-3 2.77-3 2.48 0 3.15 1 3.07 3.27-.09 2.93-.01 5.91-.01 8.88zM363.24 474.81q.4-7.32.82-14.63c9.12-.1 8.86-.09 9.07 8.67.11 4.31-1.15 6.08-5.47 5.65a24.47 24.47 0 00-4.42.31zM1365.84 558.05v-9.44c0-1.45.17-2.55 2.1-2.59s2.58.89 2.57 2.7v18.87c0 1.45-.28 2.51-2.15 2.58-2 .08-2.54-.91-2.51-2.68.02-3.15-.02-6.29-.01-9.44zM1373.06 558.18v-8.93c0-1.47-.23-3.13 2.11-3.08 2 0 1.9 1.44 1.9 2.75v18.37c0 1.29.19 2.74-1.83 2.83-2.31.09-2.18-1.49-2.18-3q-.01-4.46 0-8.94zM1023.07 558.89c-.18-2.77-.52-5.08 3.7-5.11 4.37 0 3.7 2.5 3.74 5.08s.53 5.13-3.78 5.1-3.82-2.48-3.66-5.07zM1029.5 513.61c.17 2.65.26 4.64-3.65 4.72-4.81.1-3.73-2.87-3.83-5.51s-.29-4.62 3.64-4.71c4.86-.11 3.7 2.89 3.84 5.5zM972 491.14c.08 2.75.62 5.2-3.71 5.18s-3.62-2.66-3.64-5.18-.59-5.07 3.76-5.05 3.59 2.67 3.59 5.05zM305.81 487.17a10.76 10.76 0 01-2.2-1.92 3.38 3.38 0 01.8-4.84 2.92 2.92 0 013.69-.1c1.81 1.28 1.91 3 1 4.81a10 10 0 01-2.07 2zM388.09 483c-2.31-.66-4.43-1.62-4-4.53s2.49-3.5 5-3.39c3.47 3.15 3.09 5.79-1 7.92zM1390.15 548.79c2.74 6.53 1.9 11.6.54 16.68-2.36-5.04-1.93-10.13-.54-16.68zM480.56 475.78c-.4 2.16-1.36 3.57-3.59 3.58a3.59 3.59 0 01-.17-7.18c2.48-.05 3.41 1.59 3.76 3.6zM339.22 477.43c2.18.21 3.47 1.4 3.48 3.48a3.13 3.13 0 01-3.38 3.42 3.06 3.06 0 01-3.38-3.38c-.02-2.18 1.28-3.24 3.28-3.52zM483.48 282.21c-.46 1.45 1 3.93-2.12 4-3.48.11-2.23-2.59-2.31-4.26-.08-1.85-.64-4.67 2.24-4.58s1.89 2.95 2.19 4.84zM421.58 481.18c-2.13-.24-3.42-1.42-3.46-3.51a3.37 3.37 0 116.74-.13c.05 2.14-1.22 3.31-3.28 3.64zM957.07 568.26c-.15 1.91-.81 3.69-3.07 3.54-1.93-.12-2.63-1.85-2.63-3.58s.57-3.83 2.85-3.83 2.78 1.88 2.85 3.87zM282.77 497.4c-2-.84-3.3-2.26-2.56-4.5s2.64-2.59 4.75-2.08c2.26 3.18 2.18 5.6-2.19 6.58zM912.67 669.63c1.91.3 2.87 1.43 2.78 3.08-.12 2-1.3 3.49-3.52 3.26-1.74-.18-2.46-1.59-2.33-3.24a3.14 3.14 0 013.07-3.1zM483.06 304c-.48 1.49 1 4.11-2.11 4.07-3.45 0-1.94-2.85-2.08-4.5s-.64-4.29 2-4.24c3.07.07 1.85 2.89 2.19 4.67zM995.14 382.71c.38-1.47-.84-3.82 1.72-3.94 3-.14 2 2.49 1.94 4s1.2 4.23-1.8 4.13-1.33-2.75-1.86-4.19zM964.13 731.18a3 3 0 01-3.1-3.12 2.71 2.71 0 012.45-3.14 2.76 2.76 0 013.35 2.74c.17 1.89-.83 3.05-2.7 3.52zM1015.06 753.56c-.32 2.09-1.36 3.28-3.32 3.08a2.78 2.78 0 01-2.55-3.12c.09-1.8 1-3.27 3-3.17s2.81 1.56 2.87 3.21zM936.5 696.58a3 3 0 012.63 3.56c-.14 1.69-1 2.84-2.77 2.84-2 0-2.92-1.46-2.9-3.27a2.94 2.94 0 013.04-3.13zM882.18 635.43a3.1 3.1 0 012.77 3.49c-.14 1.94-1.36 3.11-3.25 2.9a2.83 2.83 0 01-2.53-3.15 3.07 3.07 0 013.01-3.24zM1035.69 785.68c-.3 1.82-1.13 3.23-3.15 3.1a2.71 2.71 0 01-2.65-3c0-1.9.78-3.29 2.78-3.34s2.77 1.46 3.02 3.24zM1310.92 532.1c-3.48.84-4.32-1-3.9-4 .24-1.65-.65-4.62 3-2.87.27 2.32.58 4.6.9 6.87z"/>
  <path class="cls-2" d="M1387.86 394.24a18.45 18.45 0 01-.13-10.64c.2-.79.51-1.64-.52-2-.38-.14-1.27.06-1.3.23-.11.57-.19 1.41.14 1.78 2.75 3.09 2.19 7 2.78 10.64h-.48z"/>
  <path class="cls-3" d="M574.09 482.86c-.46 1.22.93 3.48-1.41 3.56-1.92.06-1.36-2-1.29-3.15.08-1.35-.84-3.58 1.16-3.77 2.31-.21 1.12 2.13 1.54 3.36zM940.51 573.39c-.21 1.27-.51 2.7-2.21 2.56-1.33-.11-1.8-1.4-1.81-2.56 0-1.37.55-2.73 2.2-2.62 1.31.1 1.71 1.33 1.82 2.62zM1042.13 430.77c.13-1.08-.32-2.52 1.47-2.6 2.1-.1 1.8 1.51 1.81 2.78s.32 2.95-1.73 2.86-1.4-1.81-1.55-3.04zM536.9 511.71c-.17 1.07.44 2.71-1.19 2.8-2.08.11-1.49-1.75-1.49-2.91s-.57-3.11 1.38-3 1.06 1.97 1.3 3.11zM575.84 512.1c.35-1.08-.62-3.1 1.63-2.82 1.9.24 1.22 2.05 1.26 3.25s.48 3-1.63 2.8-.91-2.1-1.26-3.23zM1043.91 450.33c.31-1.06-.63-3 1.49-2.88 1.57.08 1.22 1.67 1.24 2.75s.27 2.6-1.31 2.7c-1.74.1-1.25-1.49-1.42-2.57z"/>
  <path class="cls-2" d="M1030 801.23l-1.32-1.72.64-.36c.23.69.47 1.37.7 2.06zM1031 802.22l.49.63-.49-.63zM1630 634.18c.09-.26.19-.51.29-.76.57.44-.11.56-.21.83zM769.99 733.21l.19-.18-.17.2-.02-.02zM1030 801.21l1 1-1-1z"/>
  <path class="cls-1" d="M1275.1 302.26a67.25 67.25 0 00-23.08-3.13c-3.92.17-5.26 1.33-4.76 5.39a192.3 192.3 0 010 47.1c-.29 2.42-.32 4.87-.56 8.75-5.61-5.6-10.35-10.33-15.09-15.08-8.54-8.55-8.53-8.55-14.07 1.82-.62 1.17-1.63 2.2-2 3.44-1.41 4.93-4.73 6.43-9.47 5.68-1.71-15.22-3.48-30.43-5.07-45.65a6.4 6.4 0 00-3.28-5.23c-3.4-2-4.46-5.07-4.54-8.8-.06-2.74-.32-5.14-2.71-7.52-2.69-2.66-.83-6.18 1.09-9.09 11-16.67 21.89-33.41 33-50 2.34-3.49 3.51-6.85 2.94-11.13-.63-4.77-.55-9.63-.7-14.46 0-1.39-.68-3.33 1.53-3.58s2 1.8 2.09 3.16c.63 7 1.18 13.92 1.77 20.89.62 15.21 1.29 30.42 1.84 45.63.13 3.61 2.41 4.22 5 3.69 5.48-1.11 10.87-.37 16.3.08 9.17.76 18.1 2.28 25.71 8 1.56 7.78.96 14.78-5.94 20.04zM859.09 325.09c-1.86 4.22-1.57 8.82-1.92 13.2-1.65 20.8-2.59 41.65-4.36 62.43-.64 7.49.75 15.86-6 21.85-1.12 1-2 2.45-3.57 2.44-6.09-.05-12.23 1.2-18.23-.81q13.71-48.3 27.45-96.6c1.37-4.82 3.24-5.4 6.63-2.51z"/>
  <path class="cls-2" d="M1281.06 282.24c-7.61-5.75-16.54-7.27-25.71-8-5.43-.45-10.82-1.19-16.3-.08-2.63.53-4.91-.08-5-3.69-.55-15.21-1.22-30.42-1.84-45.63 16.13 16.56 32.31 33.07 48.33 49.74 1.94 2.02 4.02 4.84.52 7.66z"/>
  <path class="cls-1" d="M1186.29 321.74q-3.84 15.51-7.67 31c-.4 1.64-.88 3.17 1.22 4.25 4.55 2.33 5.59 6.72 2.76 11a21 21 0 01-2.39 3.2c-1.78 1.85-1.34 3.21.74 4.27 2.51 1.28 3.34 3.56 3.86 6.08 2.65 12.95 3.06 26.08 3 39.22 0 4.11-.77 8.43-5.46 10.36-1.18-14.76-2.28-29.53-3.57-44.28-.39-4.52-.25-9.3-4.62-12.56-.88-.67-.72-2.78-1-4.23-.78-4.34.53-9-2.18-13.07a2.67 2.67 0 01.07-1.9c3.86-12.88 7.75-25.76 12-39.92 1.48 2.95 2.36 4.76 3.24 6.58zM762.55 362c-3.42 5.11-3.44 11.32-5.38 16.91-1.29 3.75-2.07 7.69-3 11.55-.52 2.13-1.34 3.91-3.93 3.5s-2.12-2.58-2.21-4.34c-.07-1.49 0-3 0-4.48 3-7.66 6-15.33 9.13-23a10.16 10.16 0 00.61-4.84c-.15-1.81.22-3.47 2.44-3.5s2 1.74 2.06 3.24.17 3.35.28 4.96z"/>
  <path class="cls-2" d="M1069.38 396.25c-.62-3.64.4-7.13.81-8.9a29.49 29.49 0 01.57 8.89z"/>
  <path class="cls-1" d="M1069.38 396.25h1.38c0 1.11.86 2.93-.93 2.9-1.14-.04-.49-1.86-.45-2.9zM1089 423.17l.62-.91c.6.54.22 1-.15 1.43-.2-.17-.36-.34-.47-.52z"/>
  <path class="cls-3" d="M1138.81 447.21c.08 1.38-6.45 7.8-8 7.85s-8.09-6.13-8.08-7.67 6.53-8.38 7.92-8.41c1.18.02 8.08 6.95 8.16 8.23zM1166.93 550.19v15.48c0 1.67-.17 3-2.35 2.91-2-.08-1.91-1.49-1.91-2.82v-32.45c0-1.55 0-3.1 2.32-2.92s1.9 1.92 1.91 3.33c.1 5.49.03 10.98.03 16.47zM1185.11 545.73v15.41c0 1.59-.08 3.05-2.32 2.9-2-.13-1.86-1.55-1.86-2.86v-31.82c0-1.45.21-2.64 2.08-2.66s2.12 1.17 2.11 2.63c-.02 5.47-.01 10.93-.01 16.4zM1164.65 496.76v11.92c0 1.59 0 3.09-2.26 2.94-2-.12-1.79-1.6-1.79-2.9v-23.85c0-1.36 0-2.71 2-2.71s2.05 1.26 2.05 2.67c-.01 3.98-.01 7.95 0 11.93zM1210.34 460.72c.67-3.12-1.43-8 3.63-8s3.78 4.82 3.46 7.8c-.26 2.43 2.81 6.81-3.14 7.06-6.35.25-2.79-4.58-3.95-6.86zM1179.11 493.7v-11.92c0-1.4.12-2.67 2-2.69s2 1.29 2 2.65v23.85c0 1.34 0 2.68-2 2.68s-2.08-1.24-2.08-2.65c.08-3.97.08-7.95.08-11.92zM1259.13 461.35c-.38 2.29 1.67 7.64-4.34 5.92-5.62-1.61-1.68-7-2.47-10.53-.51-2.3 1-4.22 3.69-4.19a3.06 3.06 0 013.11 3.2c.08 1.65.01 3.3.01 5.6zM1247.19 512.42c-.64 2.09 1.57 5.71-3.26 5.54-4.42-.17-2.66-3.45-2.73-5.49-.08-2.55-1.19-6.51 3.16-6.39 4 .12 2.34 3.92 2.83 6.34zM1216 511.41a25 25 0 01.21-3.56 2.73 2.73 0 013.14-2.5c3 .4 3 2.9 2.63 5-.42 2.36 2.09 6-2.22 6.87-4.83.94-3.49-2.88-3.76-5.81zM1232.53 394.25c1.69.54 4.34-.9 4.24 2.17-.06 2.24-2.17 1.67-3.48 1.56-1.55-.13-4.11 1.17-4.28-1.74s2.4-1.34 3.52-1.99zM1270.89 327.35c.49-1.43-.89-4 1.61-4 2.92 0 1.69 2.75 1.69 4.26s1.21 4.38-1.7 4.21c-2.7-.16-1.01-2.95-1.6-4.47zM1232.68 391.87c-1.26-.39-3.54.82-3.62-1.34-.08-2.36 2.26-1.3 3.47-1.29 1.4 0 3.94-1.1 3.91 1.38-.02 1.88-2.44.94-3.76 1.25zM1206.28 399.05c-1.38-.48-1-1.78-1-2.84 0-.89.52-1.67 1.51-1.43 1.61.38 1.06 1.79 1.07 2.84.03.87-.35 1.58-1.58 1.43zM746.49 518.68a20 20 0 000 3.46c.91 5.14-2 5.63-6 5.35-2.25-.16-2.75-1.18-2.73-3.13.06-3.8.18-7.61 0-11.4s2.22-3.23 4.54-3.35c2.65-.14 4.63.17 4.25 3.61-.21 1.78-.05 3.64-.06 5.46zM899.17 540.44c.11 1.46.26 3.63-3.65 3.66-4.53 0-3.37-2.88-3.56-5.33-.24-2.84.17-4.57 3.85-4.52 4.19.05 3.19 2.75 3.36 6.19zM857.07 493.38c.11 2.34 0 3.88-2.47 3.86s-2.45-1.63-2.48-3.37c0-2 0-3.7 2.8-3.54s2.08 2.05 2.15 3.05zM793 487.56c.34-1.14-.58-3.29 1.41-3.06s1.18 2.41 1.24 3.77c0 1.18.53 3.26-1.43 3-2.14-.27-.82-2.43-1.22-3.71zM812.71 494.38c-.67-.86-1-1.11-1-1.36-.09-2.07-1-4.25.68-6.07.15-.16 1.16.12 1.2.31.41 2.31 1.13 4.74-.88 7.12zM769.2 538.37c-.38 1.28.68 3.55-1.51 3.48-2.46-.08-1.43-2.47-1.5-3.89s-.68-3.53 1.45-3.45c2.49.09 1.07 2.49 1.56 3.86zM829.19 494.39c.32-1.51-.62-3.72 1.48-3.8 2.26-.08 1.44 2.18 1.42 3.44s1 3.42-1.51 3.32c-2.03-.08-.95-2.05-1.39-2.96zM863.72 550c-.25 1.23-.82 2.29-2.17 2.22a2.26 2.26 0 01-2.17-2.69 2.13 2.13 0 012.16-2.21c1.57.02 2.14 1.19 2.18 2.68zM886.74 495.87c.13-1.08-.29-2.49 1.4-2.71s1.92.93 1.86 2.19.42 2.92-1.6 3c-1.65.07-1.6-1.35-1.66-2.48zM1388.84 850.59c0 1.16-.08 2.32 0 3.47.22 2.53-1.46 2.56-3.2 2.52s-3.5.29-3.4-2.34c.06-1.82.06-3.64 0-5.46-.12-2.52-.09-4.47 3.49-4.41 3.41 0 3.19 2 3.13 4.23-.03.66-.01 1.32-.02 1.99zM1374.84 850.36v3.95c0 2.22-1.66 2.06-3.14 2.09s-3.1.11-3.15-2.07c0-2 0-4-.07-5.92 0-2.24-.17-4.16 3.19-4.14s3.33 1.82 3.21 4.12v2zM1396.92 850.82v-3.48c-.05-1.73.83-2.29 2.45-2.26 1.79 0 2.25 1 2.24 2.56v7c0 1.53-.49 2.46-2.28 2.51-2.11.06-2.48-1.1-2.43-2.8v-3.49zM1361.86 850.76c-1 1.91 1.39 5.6-2 5.68s-1.81-3.6-1.75-5.48c.06-2.11-1.74-6 1.57-6.12 3.75-.11 1.06 3.95 2.18 5.92z"/>
  <path class="cls-1" d="M419.86 413.25c.32 3.08 1.17 6.2-.81 9.07.16-3.03-.7-6.15.81-9.07zM392.28 420.18l-.72 15.92c-.56-5.34-1.56-10.7.72-15.92zM393.18 409.19c.07 3.74.37 7.5-1.12 11.09.37-3.7-1.06-7.58 1.12-11.09z"/>
</svg>
